<svg xmlns="http://www.w3.org/2000/svg" viewBox="0 0 1808 1620" width="1808" height="1620">
  <defs>
    <style>
      @import url('https://fonts.googleapis.com/css2?family=Josefin+Sans:wght@300;400&amp;display=swap');
    </style>
  </defs>
  <path fill="#B8432A" fill-rule="evenodd" d="M 348 962 L 347 970 L 349 1006 L 425 1006 L 427 1004 L 426 996 L 427 965 L 425 962 L 423 961 L 377 962 L 351 961 Z M 1670 19 L 1663 19 L 1658 21 L 1652 21 L 1637 25 L 1625 26 L 1610 29 L 1606 31 L 1585 34 L 1580 36 L 1573 36 L 1562 38 L 1558 40 L 1549 40 L 1520 46 L 1506 47 L 1494 50 L 1486 50 L 1472 53 L 1462 53 L 1449 56 L 1440 56 L 1425 59 L 1414 59 L 1405 61 L 1387 61 L 1373 63 L 1296 64 L 1223 60 L 1216 58 L 1180 56 L 1174 54 L 1122 50 L 1032 50 L 1021 51 L 1015 53 L 1000 53 L 978 56 L 974 58 L 955 60 L 945 63 L 935 64 L 932 66 L 906 71 L 899 74 L 895 74 L 889 77 L 884 77 L 879 80 L 873 81 L 860 87 L 857 87 L 852 90 L 847 91 L 845 93 L 821 103 L 798 116 L 792 118 L 789 121 L 785 122 L 782 125 L 774 129 L 770 133 L 764 135 L 758 140 L 753 139 L 744 145 L 742 145 L 688 183 L 672 191 L 666 192 L 663 194 L 627 199 L 602 199 L 574 196 L 548 196 L 541 198 L 524 199 L 519 201 L 514 201 L 505 204 L 501 204 L 488 208 L 485 210 L 479 211 L 462 218 L 441 230 L 416 248 L 390 274 L 368 305 L 359 323 L 358 328 L 354 335 L 353 341 L 351 343 L 348 354 L 348 358 L 346 362 L 346 368 L 343 376 L 341 392 L 341 425 L 343 442 L 345 448 L 345 457 L 348 467 L 351 494 L 350 513 L 345 527 L 342 530 L 339 538 L 334 546 L 333 550 L 325 563 L 324 568 L 321 571 L 316 583 L 313 586 L 308 598 L 300 613 L 297 616 L 290 634 L 285 641 L 284 645 L 269 672 L 260 692 L 242 724 L 240 730 L 219 768 L 214 780 L 212 781 L 211 786 L 184 835 L 179 847 L 173 856 L 163 878 L 160 881 L 160 883 L 155 885 L 140 881 L 115 880 L 95 884 L 90 887 L 84 888 L 73 894 L 55 907 L 46 916 L 34 933 L 29 945 L 27 947 L 27 950 L 25 953 L 21 968 L 20 992 L 21 1003 L 24 1010 L 25 1017 L 36 1040 L 47 1055 L 61 1068 L 82 1080 L 95 1085 L 118 1089 L 144 1087 L 157 1084 L 171 1078 L 183 1071 L 194 1062 L 207 1048 L 214 1037 L 224 1014 L 224 1008 L 226 1006 L 312 1005 L 311 962 L 308 961 L 294 962 L 292 961 L 290 962 L 227 962 L 225 961 L 220 944 L 215 934 L 211 929 L 211 927 L 201 914 L 191 905 L 203 890 L 213 875 L 234 848 L 238 841 L 250 827 L 283 780 L 300 759 L 301 756 L 306 751 L 311 742 L 316 737 L 322 727 L 335 711 L 350 690 L 351 687 L 381 647 L 385 639 L 394 626 L 403 616 L 413 602 L 422 593 L 441 580 L 447 578 L 455 573 L 460 572 L 471 567 L 477 566 L 483 563 L 487 563 L 491 561 L 495 561 L 503 558 L 523 554 L 533 554 L 542 552 L 558 551 L 592 554 L 612 559 L 648 574 L 679 591 L 686 593 L 697 598 L 699 600 L 704 601 L 721 610 L 726 611 L 731 614 L 752 622 L 758 623 L 763 626 L 770 627 L 773 629 L 777 629 L 780 631 L 787 632 L 790 634 L 801 637 L 811 638 L 815 640 L 829 643 L 836 643 L 844 646 L 852 646 L 857 648 L 883 650 L 920 650 L 932 648 L 956 647 L 963 655 L 973 671 L 985 686 L 995 702 L 1012 723 L 1020 736 L 1017 739 L 995 749 L 987 751 L 985 753 L 980 754 L 975 757 L 970 758 L 968 760 L 965 760 L 946 769 L 940 770 L 936 773 L 924 777 L 912 783 L 758 783 L 756 785 L 757 871 L 754 874 L 752 874 L 696 906 L 607 905 L 544 906 L 542 908 L 543 959 L 540 962 L 494 962 L 492 961 L 485 962 L 464 961 L 462 962 L 461 988 L 462 994 L 461 1004 L 462 1006 L 540 1006 L 542 1008 L 543 1051 L 542 1062 L 543 1064 L 547 1065 L 549 1064 L 560 1065 L 563 1064 L 665 1064 L 673 1065 L 702 1064 L 703 1062 L 704 953 L 708 952 L 730 938 L 741 932 L 743 932 L 745 930 L 747 930 L 750 927 L 756 924 L 758 942 L 916 941 L 916 862 L 917 844 L 926 840 L 929 840 L 934 837 L 945 834 L 947 832 L 952 831 L 967 824 L 983 819 L 985 817 L 1010 808 L 1017 804 L 1020 804 L 1026 800 L 1028 800 L 1030 798 L 1034 797 L 1051 788 L 1070 775 L 1078 767 L 1082 760 L 1085 748 L 1085 733 L 1081 720 L 1078 716 L 1074 706 L 1070 701 L 1070 699 L 1067 696 L 1047 663 L 1040 654 L 1039 650 L 1035 645 L 1035 643 L 1028 631 L 1028 626 L 1047 622 L 1051 620 L 1055 620 L 1071 626 L 1075 629 L 1084 632 L 1093 637 L 1114 652 L 1140 668 L 1141 670 L 1154 679 L 1181 705 L 1191 719 L 1194 725 L 1196 733 L 1196 748 L 1191 761 L 1183 771 L 1159 808 L 1145 826 L 1140 835 L 1097 895 L 1080 921 L 1074 928 L 1051 963 L 1047 967 L 1027 998 L 1004 1029 L 986 1057 L 972 1075 L 953 1103 L 944 1113 L 928 1126 L 914 1134 L 892 1141 L 885 1142 L 781 1142 L 757 1148 L 744 1154 L 728 1165 L 717 1178 L 707 1194 L 704 1201 L 704 1206 L 957 1206 L 959 1205 L 989 1162 L 993 1158 L 1008 1135 L 1014 1128 L 1015 1125 L 1021 1118 L 1044 1083 L 1046 1082 L 1054 1069 L 1061 1061 L 1072 1043 L 1078 1036 L 1090 1017 L 1103 1000 L 1108 991 L 1142 944 L 1156 922 L 1181 888 L 1213 840 L 1220 832 L 1225 823 L 1260 774 L 1267 761 L 1270 751 L 1271 734 L 1268 721 L 1258 702 L 1234 672 L 1227 665 L 1202 628 L 1195 612 L 1191 595 L 1188 588 L 1188 583 L 1185 572 L 1184 555 L 1189 550 L 1191 550 L 1195 546 L 1218 531 L 1234 519 L 1241 512 L 1249 507 L 1281 480 L 1300 462 L 1344 416 L 1375 380 L 1378 375 L 1386 367 L 1400 349 L 1431 314 L 1459 286 L 1486 262 L 1514 240 L 1517 239 L 1518 237 L 1538 225 L 1547 218 L 1581 200 L 1584 200 L 1594 195 L 1630 183 L 1644 176 L 1652 169 L 1662 155 L 1669 140 L 1672 131 L 1671 124 L 1669 123 L 1631 124 L 1614 126 L 1586 125 L 1586 123 L 1607 107 L 1641 78 L 1657 61 L 1664 49 L 1664 46 L 1669 35 L 1670 26 L 1672 22 Z M 590 955 L 592 953 L 655 954 L 654 1017 L 651 1018 L 592 1017 L 590 1015 Z M 114 935 L 133 935 L 138 936 L 151 942 L 163 953 L 169 963 L 172 972 L 173 979 L 172 996 L 169 1005 L 163 1015 L 153 1025 L 147 1029 L 130 1034 L 117 1034 L 109 1032 L 102 1029 L 93 1023 L 84 1014 L 79 1006 L 75 992 L 75 975 L 77 971 L 77 967 L 84 955 L 94 945 L 101 940 L 107 938 L 109 936 Z M 805 831 L 811 830 L 816 831 L 857 830 L 868 832 L 867 894 L 829 895 L 811 894 L 807 895 L 803 892 Z M 409 463 L 409 455 L 407 449 L 405 428 L 405 398 L 410 368 L 418 348 L 433 323 L 441 313 L 457 297 L 467 289 L 470 288 L 477 282 L 481 281 L 497 272 L 500 272 L 509 268 L 532 262 L 549 260 L 566 260 L 567 261 L 621 263 L 642 262 L 668 258 L 675 255 L 685 253 L 718 239 L 757 212 L 759 214 L 756 220 L 755 231 L 750 255 L 751 295 L 753 301 L 754 312 L 756 315 L 759 330 L 769 354 L 775 363 L 775 365 L 778 368 L 783 377 L 794 391 L 810 408 L 828 423 L 849 436 L 876 449 L 894 455 L 909 458 L 913 460 L 944 464 L 977 464 L 984 462 L 993 462 L 1005 459 L 1015 458 L 1019 456 L 1024 456 L 1040 451 L 1068 440 L 1072 437 L 1077 436 L 1107 422 L 1117 416 L 1130 410 L 1135 409 L 1145 403 L 1154 400 L 1156 398 L 1194 380 L 1203 374 L 1205 374 L 1235 357 L 1237 357 L 1240 354 L 1248 351 L 1255 346 L 1261 344 L 1272 336 L 1281 332 L 1316 311 L 1319 308 L 1327 304 L 1353 286 L 1368 278 L 1387 264 L 1391 264 L 1376 279 L 1349 311 L 1339 321 L 1335 327 L 1326 336 L 1324 340 L 1266 404 L 1232 437 L 1191 472 L 1188 473 L 1170 487 L 1142 504 L 1136 509 L 1134 509 L 1108 525 L 1106 525 L 1104 527 L 1102 527 L 1065 546 L 1062 546 L 1051 552 L 1045 553 L 1032 559 L 1025 560 L 1023 562 L 1017 563 L 1011 566 L 967 577 L 943 581 L 934 581 L 925 583 L 910 584 L 873 583 L 846 580 L 841 578 L 833 578 L 805 571 L 802 569 L 794 568 L 762 557 L 733 545 L 710 533 L 707 533 L 684 520 L 663 511 L 655 506 L 652 506 L 647 503 L 627 496 L 614 493 L 609 493 L 599 490 L 590 490 L 582 488 L 550 488 L 517 491 L 512 493 L 496 495 L 458 505 L 453 508 L 448 507 L 488 434 L 491 432 L 505 433 L 518 429 L 530 420 L 538 408 L 540 403 L 542 388 L 538 374 L 534 367 L 524 357 L 520 356 L 517 353 L 507 350 L 492 350 L 483 353 L 474 358 L 465 367 L 461 374 L 457 390 L 458 400 L 462 410 L 415 462 L 414 465 L 410 466 Z M 818 305 L 814 284 L 815 254 L 821 230 L 832 206 L 847 185 L 859 173 L 876 159 L 893 148 L 895 148 L 905 142 L 918 141 L 926 137 L 940 134 L 943 132 L 957 129 L 964 126 L 974 125 L 978 123 L 997 121 L 1011 118 L 1041 115 L 1121 115 L 1232 125 L 1230 127 L 1206 129 L 1183 132 L 1170 135 L 1152 136 L 1131 139 L 1110 139 L 1090 141 L 1084 143 L 1075 143 L 1062 146 L 1054 146 L 1042 149 L 1035 149 L 1025 152 L 1015 153 L 1012 155 L 1005 155 L 997 158 L 988 159 L 974 163 L 946 173 L 917 187 L 904 195 L 892 205 L 877 221 L 864 244 L 863 251 L 861 254 L 860 262 L 861 282 L 865 293 L 865 297 L 871 308 L 871 310 L 885 328 L 892 334 L 906 343 L 932 352 L 947 354 L 975 354 L 994 351 L 1016 345 L 1019 343 L 1036 338 L 1037 336 L 1051 332 L 1066 325 L 1069 322 L 1073 321 L 1088 312 L 1095 310 L 1123 297 L 1127 294 L 1151 283 L 1164 275 L 1166 275 L 1208 251 L 1213 247 L 1220 244 L 1262 216 L 1264 216 L 1273 209 L 1289 200 L 1298 193 L 1313 184 L 1321 177 L 1333 170 L 1337 166 L 1343 163 L 1357 152 L 1360 151 L 1365 146 L 1371 142 L 1377 140 L 1395 127 L 1408 126 L 1423 123 L 1440 122 L 1461 119 L 1467 117 L 1477 117 L 1485 115 L 1489 116 L 1474 128 L 1467 132 L 1461 138 L 1453 139 L 1445 144 L 1430 156 L 1424 159 L 1420 163 L 1410 169 L 1400 177 L 1397 178 L 1392 183 L 1352 209 L 1345 215 L 1330 224 L 1302 244 L 1297 246 L 1283 256 L 1271 262 L 1270 264 L 1268 264 L 1235 285 L 1233 285 L 1230 288 L 1228 288 L 1225 291 L 1223 291 L 1218 295 L 1216 295 L 1207 301 L 1163 324 L 1149 330 L 1143 334 L 1141 334 L 1134 339 L 1132 339 L 1130 341 L 1128 341 L 1124 344 L 1112 349 L 1109 352 L 1103 354 L 1097 359 L 1093 360 L 1083 367 L 1081 367 L 1071 373 L 1061 376 L 1054 380 L 1045 382 L 1036 386 L 1032 386 L 1016 392 L 986 398 L 957 400 L 929 397 L 916 394 L 910 391 L 905 391 L 902 388 L 898 388 L 892 384 L 882 380 L 879 377 L 875 376 L 872 373 L 868 372 L 859 365 L 845 351 L 829 330 L 824 321 L 824 317 L 821 313 Z"/>
  <text x="904" y="1520" text-anchor="middle" font-family="'Josefin Sans', sans-serif" font-weight="300" font-size="255" fill="#1E1A14" letter-spacing="54">Sandpiper</text>
</svg>
