<svg xmlns="http://www.w3.org/2000/svg" width="468" height="80" fill="none" viewBox="0 0 468 80"><path fill="#222" d="M101.613.021h-1.117V80h1.117zM372.798 45.93h-4.927a.51.51 0 0 1-.49-.36l-8.14-25.181a.51.51 0 0 1 .489-.665h4.927c.224 0 .426.147.49.358l8.14 25.182a.51.51 0 0 1-.489.665M385.524 45.93h-4.926a.51.51 0 0 1-.49-.36l-8.14-25.181a.51.51 0 0 1 .489-.665h4.927c.223 0 .426.147.489.358l8.141 25.182a.51.51 0 0 1-.49.665M390.217 20.083a.51.51 0 0 0-.489-.36h-4.927a.51.51 0 0 0-.49.666l4.555 14.116c.149.475.83.475.979 0l2.415-7.465c.064-.2.064-.422 0-.623zM297.246 45.93c-.351 0-.702-.286-.702-.687V7.455c0-.401.351-.75.702-.75h12.482c3.075 0 6.385.401 9.109 2.302 2.383 1.615 4.065 4.15 4.065 7.665 0 4.202-1.969 7.085-5.161 8.52v.233c5.629 1.098 8.417 4.783 8.417 9.967 0 7.317-6.555 10.537-13.174 10.537zm16.653-32.89c-1.16-.75-2.607-1.098-4.118-1.098h-6.736v11.466h6.151c1.511 0 3.139-.116 4.416-.75 1.564-.802 2.724-2.417 2.724-4.951 0-2.249-.99-3.748-2.437-4.667m2.501 16.471c-1.394-.75-3.246-.919-6.214-.919h-7.141v12.1h8.535c1.628 0 3.139-.169 4.416-.686 2.085-.866 3.543-2.534 3.543-5.416 0-2.133-.99-4.034-3.139-5.068zM333.755 23.007c2.554-2.365 6.098-3.8 10.046-3.8s7.491 1.435 10.045 3.8c2.554 2.418 4.065 5.818 4.065 9.851s-1.447 7.55-4.065 9.904c-2.49 2.365-6.151 3.748-10.045 3.748s-7.545-1.383-10.046-3.748c-2.607-2.365-4.118-5.818-4.118-9.904s1.565-7.433 4.118-9.85m4.065 16.006c1.448 1.553 3.544 2.534 5.981 2.534s4.469-.981 5.916-2.534c1.447-1.615 2.32-3.684 2.32-6.166 0-2.48-.873-4.55-2.32-6.166-1.447-1.552-3.543-2.534-5.916-2.534s-4.523.982-5.981 2.534c-1.447 1.616-2.266 3.685-2.266 6.166s.809 4.551 2.266 6.166M417.416 39.763c.521-.285.872-.116 1.042.169l1.565 2.882c.234.349.063.687-.288.919-2.149 1.5-5.98 2.766-9.981 2.766-4.416 0-8.013-1.436-10.45-4.033-2.319-2.418-3.66-5.87-3.66-9.967 0-3.801 1.394-7.137 3.714-9.566 2.202-2.302 5.459-3.685 9.64-3.685 4.523 0 7.896 1.669 9.929 4.319 1.915 2.48 2.724 6.102 2.5 10.083-.064.464-.351.802-.808.802h-18.697c.17 2.07.873 3.632 1.969 4.836 1.447 1.668 3.66 2.534 6.267 2.534 2.842 0 5.225-.866 7.258-2.07zm-1.735-9.27c-.117-1.848-.638-3.284-1.745-4.487-1.107-1.215-2.788-2.017-4.991-2.017s-4.118.802-5.278 2.133c-.989 1.15-1.628 2.703-1.745 4.381h13.759zM432.356 33.26v11.983c0 .401-.288.686-.692.686h-4.522c-.405 0-.756-.285-.756-.686V20.42c0-.348.351-.686.756-.686h4.299c.404 0 .755.348.755.686v2.534h.17c1.628-2.418 3.884-3.684 6.906-3.684 2.49 0 4.704.75 6.385 2.132.351.285.468.687.287.982l-1.681 3.453c-.17.348-.585.464-1.043.169-1.511-.919-2.958-1.5-4.873-1.5-4.523 0-5.981 4.667-5.981 8.753zM461.278 38.96c0-1.73-1.394-2.48-3.139-3.283-1.628-.75-4.001-1.383-5.98-2.302-2.842-1.32-4.353-3.452-4.353-6.736 0-4.603 3.597-7.433 10.046-7.433 3.884 0 6.501.919 8.417 1.953.468.233.521.581.351.919l-1.628 3.284c-.234.4-.522.464-.926.232-1.915-1.035-3.948-1.552-5.863-1.552-2.501 0-4.235.75-4.235 2.481 0 1.5 1.277 2.249 2.841 2.935 1.798.75 4.065 1.436 5.863 2.302 3.426 1.668 4.757 3.685 4.757 6.683 0 4.783-4.001 8.067-10.45 8.067-4.469 0-7.374-1.098-9.226-2.302-.351-.232-.468-.517-.287-.866l1.628-3.283c.17-.401.521-.518.926-.285 2.085 1.32 4.352 2.132 6.672 2.132 2.671 0 4.586-.918 4.586-2.935z"/><path fill="#b31b1b" d="M121.009 26.29c0-11.233 9.289-20.102 20.899-20.102 5.576 0 9.289 1.436 12.013 2.935.469.232.586.634.352.982l-2.033 4.202c-.17.465-.585.465-.926.285-2.436-1.267-5.341-2.587-9.577-2.587-7.544 0-13.993 6.335-13.993 14.286 0 8.52 6.332 14.401 14.047 14.401 4.182 0 7.31-1.267 9.747-2.65.404-.232.692-.169.926.232l2.032 4.319c.17.4.117.686-.351.918-3.022 1.616-6.736 2.999-12.418 2.999-12.248 0-20.718-7.887-20.718-20.22M160.647 23.007c2.553-2.365 6.097-3.8 10.045-3.8s7.491 1.435 10.045 3.8c2.554 2.418 4.065 5.818 4.065 9.851s-1.447 7.55-4.065 9.904c-2.49 2.365-6.151 3.748-10.045 3.748s-7.545-1.383-10.045-3.748c-2.618-2.365-4.118-5.818-4.118-9.904s1.564-7.433 4.118-9.85m4.064 16.006c1.448 1.553 3.544 2.534 5.981 2.534s4.469-.981 5.916-2.534c1.447-1.615 2.32-3.684 2.32-6.166 0-2.48-.873-4.55-2.32-6.166-1.447-1.552-3.543-2.534-5.916-2.534s-4.523.982-5.981 2.534c-1.447 1.616-2.266 3.685-2.266 6.166s.809 4.551 2.266 6.166M195.049 33.26v11.983c0 .401-.287.686-.692.686h-4.522c-.404 0-.755-.285-.755-.686V20.42c0-.348.351-.686.755-.686h4.299c.404 0 .756.348.756.686v2.534h.17c1.628-2.418 3.884-3.684 6.906-3.684 2.49 0 4.703.75 6.385 2.132.351.285.468.687.287.982l-1.681 3.453c-.171.348-.586.464-1.043.169-1.511-.919-2.959-1.5-4.874-1.5-4.522 0-5.98 4.667-5.98 8.753zM236.901 45.243c0 .401-.288.686-.692.686h-4.586c-.405 0-.692-.285-.692-.686V31.654c0-2.365-.351-4.487-1.681-5.87-.926-.919-2.267-1.5-4.236-1.5-2.67 0-4.756 1.215-6.033 3.453-.99 1.785-1.394 3.97-1.394 6.103v11.403c0 .401-.287.686-.692.686h-4.522c-.405 0-.756-.285-.756-.686V20.42c0-.348.351-.686.756-.686h4.299c.404 0 .755.348.755.686v2.82h.171c1.915-2.65 4.937-4.034 8.587-4.034 3.022 0 5.746.75 7.661 2.481 1.969 1.732 3.076 4.55 3.076 8.52v15.036zM262.78 39.763c.521-.285.872-.116 1.042.169l1.565 2.882c.234.349.064.687-.288.919-2.149 1.5-5.98 2.766-9.981 2.766-4.416 0-8.013-1.436-10.45-4.033-2.319-2.418-3.66-5.87-3.66-9.967 0-3.801 1.394-7.137 3.714-9.566 2.202-2.302 5.459-3.685 9.64-3.685 4.523 0 7.896 1.669 9.929 4.319 1.915 2.48 2.724 6.102 2.5 10.083-.064.464-.351.802-.808.802h-18.697c.17 2.07.873 3.632 1.969 4.836 1.447 1.668 3.66 2.534 6.267 2.534 2.842 0 5.225-.866 7.258-2.07zm-1.746-9.27c-.117-1.848-.638-3.284-1.745-4.487-1.106-1.215-2.788-2.017-4.99-2.017s-4.118.802-5.278 2.133c-.99 1.15-1.628 2.703-1.745 4.381h13.758zM272.495 6.705h4.522c.405 0 .692.349.692.75v37.777c0 .401-.287.687-.692.687h-4.522c-.405 0-.756-.286-.756-.687V7.455a.77.77 0 0 1 .756-.75M284.924 6.705h4.522c.404 0 .692.349.692.75v37.777c0 .401-.288.687-.692.687h-4.522c-.405 0-.756-.286-.756-.687V7.455a.77.77 0 0 1 .756-.75"/><path fill="#222" d="M122.895 65.24c0-3.474 2.916-6.314 6.491-6.314 1.767 0 2.937.486 3.788.982.128.074.16.158.107.274l-.437.908c-.053.127-.159.106-.255.053-.745-.412-1.745-.908-3.245-.908-2.682 0-4.938 2.28-4.938 5.015 0 2.999 2.277 5.047 4.959 5.047 1.479 0 2.532-.475 3.277-.918.107-.074.181-.053.256.052l.436.94c.032.095.021.159-.096.232-.926.528-2.096.993-3.905.993-3.682 0-6.449-2.492-6.449-6.346zM135.739 64.321c.787-.781 1.894-1.224 3.139-1.224s2.352.453 3.139 1.224c.766.74 1.224 1.795 1.224 3.02s-.458 2.28-1.224 3.02c-.787.78-1.894 1.224-3.139 1.224s-2.352-.454-3.139-1.224c-.766-.74-1.224-1.795-1.224-3.02s.458-2.28 1.224-3.02m.915 5.227c.532.601 1.309.96 2.224.96s1.692-.359 2.224-.96c.532-.56.819-1.341.819-2.207s-.287-1.647-.819-2.207c-.532-.602-1.309-.96-2.224-.96s-1.692.358-2.224.96c-.532.56-.819 1.341-.819 2.207s.287 1.647.819 2.207M145.454 59.095h.99c.096 0 .159.095.159.18v11.972a.156.156 0 0 1-.159.159h-.99c-.096 0-.181-.074-.181-.159V59.274c0-.095.096-.18.181-.18M149.306 59.095h.99c.096 0 .159.095.159.18v11.972a.156.156 0 0 1-.159.159h-.99c-.096 0-.181-.074-.181-.159V59.274c0-.095.096-.18.181-.18M159.426 69.78c.149-.095.234-.032.277.031l.351.666c.053.095.021.158-.075.232-.67.454-1.862.866-3.139.866-1.362 0-2.501-.475-3.245-1.32-.692-.76-1.075-1.805-1.075-3.04 0-1.162.404-2.208 1.096-2.947s1.692-1.193 3.011-1.193 2.352.528 2.99 1.299c.607.76.926 1.827.862 3.115 0 .126-.095.2-.223.2h-6.342c.053.687.287 1.32.713 1.806.532.633 1.33.992 2.33.992s1.809-.327 2.48-.728zm-.245-3.04c-.032-.74-.277-1.352-.67-1.806-.415-.454-1.075-.782-1.894-.782-.916 0-1.607.328-2.065.855-.383.454-.617 1.088-.659 1.732zM167.62 73.834c.415-.475.617-1.14.617-2.027v-1.045c-.745.612-1.533.813-2.458.813-1.171 0-2.043-.433-2.661-1.12-.713-.791-1.074-1.921-1.074-3.125s.329-2.301 1.042-3.114c.618-.687 1.511-1.12 2.682-1.12 1.17 0 1.937.433 2.458.856h.053v-.528c0-.095.075-.18.16-.18h.947c.106 0 .181.095.181.18v8.246c0 1.298-.33 2.312-1.043 2.998-.638.634-1.607.94-2.841.94s-2.277-.38-3.012-.866c-.095-.053-.127-.127-.074-.222l.362-.728c.053-.095.149-.127.276-.032.671.454 1.479.782 2.458.782.873 0 1.511-.254 1.916-.708zm.617-4.234v-4.487c-.479-.38-1.171-.94-2.32-.94-.798 0-1.426.328-1.82.834-.489.602-.713 1.426-.713 2.302 0 .919.224 1.774.692 2.355.415.507 1 .813 1.82.813.968 0 1.713-.349 2.33-.866zM178.559 69.78c.149-.095.234-.032.276.031l.351.666c.054.095.022.158-.074.232-.671.454-1.862.866-3.139.866-1.362 0-2.501-.475-3.246-1.32-.691-.76-1.075-1.805-1.075-3.04 0-1.162.405-2.208 1.096-2.947s1.692-1.193 3.012-1.193c1.319 0 2.352.528 2.99 1.299.607.76.926 1.827.862 3.115 0 .126-.096.2-.223.2h-6.343c.054.687.288 1.32.713 1.806.532.633 1.331.992 2.331.992s1.809-.327 2.479-.728zm-.235-3.04c-.032-.74-.276-1.352-.67-1.806-.415-.454-1.075-.782-1.894-.782-.915 0-1.607.328-2.064.855-.384.454-.618 1.088-.66 1.732zM187.05 64.321c.788-.781 1.894-1.224 3.139-1.224s2.352.453 3.139 1.224c.766.74 1.224 1.795 1.224 3.02s-.458 2.28-1.224 3.02c-.787.78-1.894 1.224-3.139 1.224s-2.351-.454-3.139-1.224c-.766-.74-1.224-1.795-1.224-3.02s.458-2.28 1.224-3.02m.915 5.227c.532.601 1.309.96 2.224.96s1.692-.359 2.224-.96c.532-.56.82-1.341.82-2.207s-.288-1.647-.82-2.207c-.532-.602-1.309-.96-2.224-.96s-1.692.358-2.224.96c-.532.56-.819 1.341-.819 2.207s.287 1.647.819 2.207M198.542 60.5c-.287.347-.383.886-.383 1.572v1.162h2.458c.096 0 .16.095.16.18v.707a.156.156 0 0 1-.16.158h-2.458v6.968c0 .096-.074.159-.181.159h-.989a.156.156 0 0 1-.16-.159V64.28h-1.053c-.096 0-.181-.074-.181-.158v-.708c0-.095.096-.18.181-.18h1.053v-1.287c0-.94.181-1.806.734-2.365.405-.402.99-.634 1.788-.634 1 0 1.873.327 2.448.76.095.053.106.159.074.233l-.33.665c-.053.105-.181.126-.287.053-.511-.402-1.043-.602-1.618-.602-.489 0-.84.148-1.074.433zM206.757 65.24c0-3.474 2.916-6.314 6.491-6.314 1.767 0 2.937.486 3.789.982.127.074.159.158.106.274l-.436.908c-.053.127-.16.106-.256.053-.745-.412-1.745-.908-3.245-.908-2.682 0-4.938 2.28-4.938 5.015 0 2.999 2.278 5.047 4.959 5.047 1.479 0 2.533-.475 3.278-.918.106-.074.18-.053.255.052l.436.94c.032.095.022.159-.096.232-.925.528-2.096.993-3.905.993-3.682 0-6.448-2.492-6.448-6.346zM219.601 64.321c.788-.781 1.894-1.224 3.139-1.224s2.352.453 3.139 1.224c.767.74 1.224 1.795 1.224 3.02s-.457 2.28-1.224 3.02c-.787.78-1.894 1.224-3.139 1.224s-2.351-.454-3.139-1.224c-.766-.74-1.224-1.795-1.224-3.02s.458-2.28 1.224-3.02m.915 5.227c.532.601 1.309.96 2.224.96s1.692-.359 2.224-.96c.532-.56.82-1.341.82-2.207s-.288-1.647-.82-2.207c-.532-.602-1.309-.96-2.224-.96s-1.692.358-2.224.96c-.532.56-.819 1.341-.819 2.207s.287 1.647.819 2.207M230.487 64.216c.543-.729 1.362-1.12 2.405-1.12.691 0 1.351.159 1.862.539.404.285.692.665.873 1.161a2.95 2.95 0 0 1 1.096-1.267c.489-.306 1.096-.433 1.692-.433.861 0 1.66.222 2.245.792.532.507.872 1.299.872 2.492v4.867a.156.156 0 0 1-.159.159h-1.001c-.095 0-.18-.074-.18-.159v-4.54c0-.834-.181-1.499-.543-1.9-.351-.38-.862-.56-1.49-.56-.67 0-1.277.254-1.66.866-.351.58-.479 1.32-.479 2.238v3.886a.156.156 0 0 1-.159.158h-1.001c-.095 0-.181-.074-.181-.158v-4.54c0-.834-.18-1.5-.542-1.9-.351-.38-.862-.56-1.49-.56-.67 0-1.277.253-1.66.866-.287.485-.479 1.214-.479 2.058v4.065a.156.156 0 0 1-.159.159h-1.001c-.095 0-.181-.074-.181-.159v-7.834c0-.095.096-.18.181-.18h.926c.096 0 .181.096.181.18v.792h.053zM246.651 63.086c1.426 0 2.66.38 3.533 1.172.766.707 1.255 1.731 1.255 3.062s-.404 2.312-1.043 2.988c-.84.918-2.075 1.288-3.139 1.288-.787 0-1.33-.095-1.936-.36v4.192a.157.157 0 0 1-.16.159h-.99c-.095 0-.181-.074-.181-.159V63.552c0-.106.054-.201.203-.233a13.7 13.7 0 0 1 2.447-.221zm-1.32 7.042c.543.275 1.043.38 1.809.38.692 0 1.533-.221 2.15-.834.51-.485.819-1.288.819-2.354 0-.982-.309-1.732-.872-2.28-.607-.582-1.458-.888-2.459-.888-.478 0-1 .053-1.436.106v5.86zM253.387 63.413c0-.095.074-.18.159-.18h.99c.106 0 .181.096.181.18v4.413c0 .73.095 1.162.33 1.595.351.58 1.042.992 2.128.992 1.085 0 1.809-.4 2.117-.982.256-.432.33-.886.33-1.605v-4.413c0-.095.096-.18.181-.18h.99c.095 0 .159.096.159.18v4.54c0 1.046-.181 1.7-.606 2.313-.585.855-1.692 1.32-3.171 1.32s-2.607-.476-3.193-1.32c-.415-.613-.606-1.267-.606-2.313v-4.54zM265.007 68.534c0 .56.074 1.013.276 1.32.234.401.639.602 1.298.602.49 0 .969-.127 1.49-.507.128-.095.224-.074.277.02l.33.708c.053.095.021.159-.075.233-.638.454-1.479.686-2.351.686-.99 0-1.618-.306-2.022-.792-.415-.528-.564-1.288-.564-2.101V64.29h-.969c-.095 0-.18-.074-.18-.159v-.707c0-.095.095-.18.18-.18h.969v-1.573c0-.095.096-.18.181-.18h.989c.096 0 .181.096.181.18v1.573h2.863c.095 0 .181.095.181.18v.707c0 .095-.096.159-.181.159h-2.863v4.254zM269.912 59.348c0-.433.362-.781.798-.781s.798.348.798.781a.8.8 0 0 1-.798.792.794.794 0 0 1-.798-.792m.33 3.886h.99c.095 0 .159.095.159.18v7.833a.156.156 0 0 1-.159.159h-.99c-.096 0-.181-.074-.181-.159v-7.834c0-.095.096-.18.181-.18M275.265 64.627c.564-1.066 1.66-1.541 2.883-1.541.99 0 1.809.232 2.384.739.638.56.989 1.468.989 2.735v4.687c0 .096-.095.159-.18.159h-.969c-.096 0-.181-.074-.181-.159v-4.392c0-.908-.181-1.626-.67-2.08-.362-.348-.873-.528-1.617-.528-.948 0-1.692.412-2.15 1.246-.351.655-.479 1.425-.479 2.154v3.6a.156.156 0 0 1-.159.159h-1.001c-.095 0-.181-.074-.181-.159v-7.834c0-.095.096-.18.181-.18h.926c.096 0 .181.096.181.18v1.214h.053zM289.087 73.834c.415-.475.617-1.14.617-2.027v-1.045c-.744.612-1.532.813-2.458.813-1.17 0-2.043-.433-2.66-1.12-.713-.791-1.075-1.921-1.075-3.125s.33-2.301 1.043-3.114c.617-.687 1.511-1.12 2.682-1.12 1.17 0 1.936.433 2.458.856h.053v-.528c0-.095.075-.18.16-.18h.947c.106 0 .181.095.181.18v8.246c0 1.298-.33 2.312-1.043 2.998-.639.634-1.607.94-2.841.94s-2.278-.38-3.012-.866c-.096-.053-.127-.127-.074-.222l.361-.728c.054-.095.149-.127.277-.032.671.454 1.479.782 2.458.782.873 0 1.511-.254 1.916-.708zm.617-4.234v-4.487c-.478-.38-1.17-.94-2.319-.94-.798 0-1.426.328-1.82.834-.489.602-.713 1.426-.713 2.302 0 .919.224 1.774.692 2.355.415.507 1 .813 1.819.813.969 0 1.714-.349 2.331-.866zM302.708 64.406h3.607c.096 0 .16.074.16.158v.908c0 .095-.075.18-.16.18h-3.607v3.558c0 .095-.075.18-.16.18h-.915c-.096 0-.181-.096-.181-.18v-3.558h-3.586c-.096 0-.159-.096-.159-.18v-.908c0-.095.074-.158.159-.158h3.586v-3.558c0-.096.096-.18.181-.18h.915c.096 0 .16.095.16.18zM314.456 59.095c.095 0 .18.095.18.18v11.972c0 .096-.095.159-.18.159h-1.107a.156.156 0 0 1-.16-.159V59.274c0-.095.075-.18.16-.18zM318.712 64.627c.564-1.066 1.66-1.541 2.884-1.541.989 0 1.809.232 2.383.739.639.56.99 1.468.99 2.735v4.687c0 .096-.096.159-.181.159h-.968c-.096 0-.181-.074-.181-.159v-4.392c0-.908-.181-1.626-.671-2.08-.361-.348-.872-.528-1.617-.528-.947 0-1.692.412-2.149 1.246-.352.655-.479 1.425-.479 2.154v3.6a.156.156 0 0 1-.16.159h-1c-.096 0-.181-.074-.181-.159v-7.834c0-.095.096-.18.181-.18h.926c.095 0 .18.096.18.18v1.214h.054zM329.396 60.5c-.288.347-.383.886-.383 1.572v1.162h2.458c.095 0 .159.095.159.18v.707a.156.156 0 0 1-.159.158h-2.458v6.968c0 .096-.075.159-.181.159h-.99a.156.156 0 0 1-.16-.159V64.28h-1.053c-.096 0-.181-.074-.181-.158v-.708c0-.095.096-.18.181-.18h1.053v-1.287c0-.94.181-1.806.735-2.365.404-.402.989-.634 1.787-.634 1.001 0 1.873.327 2.448.76.096.053.106.159.074.233l-.33.665c-.053.105-.18.126-.287.053-.511-.402-1.043-.602-1.617-.602-.49 0-.841.148-1.075.433zM333.78 64.321c.787-.781 1.894-1.224 3.139-1.224s2.352.453 3.139 1.224c.766.74 1.224 1.795 1.224 3.02s-.458 2.28-1.224 3.02c-.787.78-1.894 1.224-3.139 1.224s-2.352-.454-3.139-1.224c-.766-.74-1.224-1.795-1.224-3.02s.458-2.28 1.224-3.02m.915 5.227c.532.601 1.309.96 2.224.96s1.692-.359 2.224-.96c.532-.56.819-1.341.819-2.207s-.287-1.647-.819-2.207c-.532-.602-1.309-.96-2.224-.96s-1.692.358-2.224.96c-.532.56-.819 1.341-.819 2.207s.287 1.647.819 2.207M345.283 65.029c-.458.612-.617 1.594-.617 2.386v3.832a.156.156 0 0 1-.16.159h-1c-.096 0-.181-.074-.181-.159v-7.834c0-.095.096-.18.181-.18h.925c.096 0 .181.096.181.18v.993h.054c.415-.866 1.223-1.32 2.319-1.32.798 0 1.437.232 1.969.654.096.074.106.148.053.233l-.404.813c-.053.095-.16.105-.277.031-.436-.306-.926-.527-1.564-.527-.607 0-1.107.232-1.479.728zM351.731 64.216c.543-.729 1.362-1.12 2.405-1.12.692 0 1.352.159 1.862.539.405.285.692.665.873 1.161a2.95 2.95 0 0 1 1.096-1.267c.489-.306 1.096-.433 1.692-.433.862 0 1.66.222 2.245.792.532.507.873 1.299.873 2.492v4.867a.156.156 0 0 1-.16.159h-1c-.096 0-.181-.074-.181-.159v-4.54c0-.834-.181-1.499-.543-1.9-.351-.38-.862-.56-1.489-.56-.671 0-1.277.254-1.661.866-.351.58-.478 1.32-.478 2.238v3.886a.156.156 0 0 1-.16.158h-1c-.096 0-.181-.074-.181-.158v-4.54c0-.834-.181-1.5-.543-1.9-.351-.38-.862-.56-1.49-.56-.67 0-1.276.253-1.66.866-.287.485-.478 1.214-.478 2.058v4.065a.157.157 0 0 1-.16.159h-1c-.096 0-.181-.074-.181-.159v-7.834c0-.095.096-.18.181-.18h.925c.096 0 .181.096.181.18v.792h.054zM365.629 64.902c-.128.074-.224.032-.256-.053l-.308-.665c-.054-.106-.032-.158.095-.232.841-.56 2.001-.855 3.139-.855.788 0 1.746.147 2.405.886.415.476.671 1.162.671 2.207v5.068a.157.157 0 0 1-.16.158h-.862a.155.155 0 0 1-.159-.158v-.285h-.075c-.841.486-1.564.633-2.479.633-.745 0-1.479-.18-2.043-.58-.543-.401-.926-.993-.926-1.827 0-1.12.691-1.752 1.692-2.133 1.106-.411 2.586-.528 3.682-.58v-.275c0-.728-.128-1.161-.415-1.5-.362-.41-.948-.538-1.49-.538-1.043 0-1.809.349-2.501.74zm4.416 5.11v-2.555c-.862.032-1.873.095-2.714.327-.787.2-1.383.602-1.383 1.32 0 1.014 1.053 1.425 2.075 1.425.691 0 1.383-.2 2.022-.527zM375.28 68.534c0 .56.074 1.013.277 1.32.234.401.638.602 1.298.602.489 0 .968-.127 1.49-.507.127-.095.223-.074.276.02l.33.708c.053.095.021.159-.074.233-.639.454-1.479.686-2.352.686-.99 0-1.617-.306-2.022-.792-.415-.528-.564-1.288-.564-2.101V64.29h-.968c-.096 0-.181-.074-.181-.159v-.707c0-.095.096-.18.181-.18h.968v-1.573c0-.095.096-.18.181-.18h.99c.095 0 .181.096.181.18v1.573h2.862c.096 0 .181.095.181.18v.707c0 .095-.096.159-.181.159h-2.862v4.254zM380.196 59.348c0-.433.362-.781.798-.781s.798.348.798.781a.8.8 0 0 1-.798.792.794.794 0 0 1-.798-.792m.33 3.886h.99c.095 0 .159.095.159.18v7.833a.156.156 0 0 1-.159.159h-.99c-.096 0-.181-.074-.181-.159v-7.834c0-.095.096-.18.181-.18M384.899 64.321c.788-.781 1.895-1.224 3.14-1.224s2.351.453 3.139 1.224c.766.74 1.223 1.795 1.223 3.02s-.457 2.28-1.223 3.02c-.788.78-1.894 1.224-3.139 1.224s-2.352-.454-3.14-1.224c-.766-.74-1.223-1.795-1.223-3.02s.457-2.28 1.223-3.02m.916 5.227c.532.601 1.308.96 2.224.96.915 0 1.692-.359 2.224-.96.532-.56.819-1.341.819-2.207s-.287-1.647-.819-2.207c-.532-.602-1.309-.96-2.224-.96s-1.692.358-2.224.96c-.532.56-.82 1.341-.82 2.207s.288 1.647.82 2.207M395.785 64.627c.564-1.066 1.66-1.541 2.884-1.541.99 0 1.809.232 2.384.739.638.56.989 1.468.989 2.735v4.687c0 .096-.096.159-.181.159h-.968c-.096 0-.181-.074-.181-.159v-4.392c0-.908-.181-1.626-.67-2.08-.362-.348-.873-.528-1.618-.528-.947 0-1.692.412-2.149 1.246-.351.655-.479 1.425-.479 2.154v3.6a.156.156 0 0 1-.16.159h-1c-.096 0-.181-.074-.181-.159v-7.834c0-.095.096-.18.181-.18h.926c.096 0 .181.096.181.18v1.214h.053zM408.693 70.413c-.107-.052-.149-.147-.096-.253l.458-.919c.032-.095.106-.126.234-.052.766.485 1.894 1.172 3.554 1.172.872 0 1.564-.222 2.043-.56.543-.412.819-1.035.819-1.732 0-.94-.67-1.499-1.585-1.879-1.075-.475-2.299-.633-3.586-1.267-1.075-.528-1.862-1.299-1.862-2.682 0-.982.361-1.795 1.074-2.365.745-.602 1.863-.94 3.331-.94 1.469 0 2.767.402 3.607.866.107.074.128.148.075.254l-.436.908c-.054.105-.149.148-.256.074-.915-.528-2.022-.856-3.064-.856s-1.767.233-2.224.655c-.384.348-.586.792-.586 1.351 0 .908.713 1.415 1.809 1.806 1.235.454 2.512.612 3.661 1.288.862.486 1.617 1.32 1.617 2.66 0 1.194-.489 2.112-1.309 2.746-.766.602-1.862.908-3.117.908-1.937 0-3.299-.612-4.172-1.172zM425.325 69.98c.128-.095.234-.052.277.032l.361.665c.054.095 0 .159-.095.233-.66.433-1.607.665-2.576.665-1.383 0-2.532-.433-3.298-1.225-.734-.728-1.128-1.774-1.128-3.02 0-1.087.351-2.006.926-2.692.84-1.014 2.117-1.552 3.522-1.552.968 0 1.862.274 2.511.728.096.074.149.148.096.233l-.383.686c-.053.106-.149.127-.277.053a3.5 3.5 0 0 0-1.947-.56c-.947 0-1.809.36-2.373 1.035-.458.528-.734 1.225-.734 2.08 0 .94.308 1.72.84 2.28s1.309.866 2.277.866c.692 0 1.352-.126 1.99-.507zM427.602 59.348c0-.433.362-.781.798-.781s.798.348.798.781a.8.8 0 0 1-.798.792.794.794 0 0 1-.798-.792m.33 3.886h.99c.095 0 .159.095.159.18v7.833a.156.156 0 0 1-.159.159h-.99c-.096 0-.181-.074-.181-.159v-7.834c0-.095.096-.18.181-.18M438.03 69.78c.149-.095.234-.032.277.031l.351.666c.053.095.021.158-.074.232-.671.454-1.863.866-3.139.866-1.363 0-2.501-.475-3.246-1.32-.692-.76-1.075-1.805-1.075-3.04 0-1.162.405-2.208 1.096-2.947s1.692-1.193 3.012-1.193c1.319 0 2.351.528 2.99 1.299.606.76.926 1.827.862 3.115 0 .126-.096.2-.224.2h-6.342c.053.687.288 1.32.713 1.806.532.633 1.33.992 2.331.992s1.809-.327 2.479-.728zm-.234-3.04c-.032-.74-.276-1.352-.67-1.806-.415-.454-1.075-.782-1.894-.782-.915 0-1.607.328-2.065.855-.383.454-.617 1.088-.659 1.732zM442.457 64.627c.564-1.066 1.66-1.541 2.884-1.541.989 0 1.809.232 2.383.739.639.56.99 1.468.99 2.735v4.687c0 .096-.096.159-.181.159h-.968c-.096 0-.181-.074-.181-.159v-4.392c0-.908-.181-1.626-.671-2.08-.361-.348-.872-.528-1.617-.528-.947 0-1.692.412-2.149 1.246-.352.655-.479 1.425-.479 2.154v3.6a.156.156 0 0 1-.16.159h-1c-.096 0-.181-.074-.181-.159v-7.834c0-.095.096-.18.181-.18h.926c.095 0 .18.096.18.18v1.214h.054zM457.12 69.98c.128-.095.235-.052.277.032l.362.665c.053.095 0 .159-.096.233-.66.433-1.607.665-2.575.665-1.383 0-2.533-.433-3.299-1.225-.734-.728-1.128-1.774-1.128-3.02 0-1.087.351-2.006.926-2.692.841-1.014 2.118-1.552 3.522-1.552.969 0 1.862.274 2.512.728.095.074.149.148.095.233l-.383.686c-.053.106-.149.127-.276.053a3.5 3.5 0 0 0-1.948-.56c-.947 0-1.809.36-2.373 1.035-.457.528-.734 1.225-.734 2.08 0 .94.309 1.72.841 2.28s1.309.866 2.277.866c.692 0 1.351-.126 1.99-.507zM465.718 69.78c.149-.095.235-.032.277.031l.351.666c.053.095.021.158-.074.232-.671.454-1.862.866-3.139.866-1.362 0-2.501-.475-3.246-1.32-.692-.76-1.075-1.805-1.075-3.04 0-1.162.405-2.208 1.096-2.947s1.692-1.193 3.012-1.193c1.319 0 2.351.528 2.99 1.299.606.76.926 1.827.862 3.115 0 .126-.096.2-.224.2h-6.342c.054.687.288 1.32.713 1.806.532.633 1.33.992 2.331.992s1.809-.327 2.479-.728zm-.234-3.04c-.032-.74-.276-1.352-.67-1.806-.415-.454-1.075-.782-1.894-.782-.915 0-1.607.328-2.065.855-.383.454-.617 1.088-.659 1.732z"/><path fill="#b31b1b" d="M6.204 40.29c1.692 0 2.703-1.066 2.82-2.956 0-.338 0-.792-.064-1.278v-.126H7.545l.127.274c.064.211.128.665.128 1.067-.064.94-.798 1.552-1.81 1.457-1.074-.064-1.691-.729-1.691-1.68 0-.337.064-.664.34-1.002l.213-.275-1.351-.21-.064.126c-.213.39-.277.887-.34 1.277-.128 1.954.947 3.231 2.915 3.295.032.031.096.031.181.031zM6.448 33.744c.394.127.735.127 1.075.127 1.288 0 2.246-.729 2.64-2.006.212-.792.127-1.457-.214-2.133-.393-.665-1.074-1.13-1.968-1.404-.34-.127-.734-.127-1.011-.127-1.288 0-2.245.729-2.64 2.006-.489 1.647.31 2.988 2.118 3.537m-.925-3.167c.213-.729.798-.887 1.287-.887.213 0 .458.063.735.127.617.21 1.074.453 1.287.886.128.275.213.55.064.887-.213.729-.798.887-1.288.887-.276 0-.457-.063-.734-.127-.83-.274-1.628-.886-1.351-1.763zM12.28 26.227 10.31 25.16l.064-.126c.213-.338.34-.338.617-.275l1.969.275.734-1.405-2.575-.274h-.458a1.49 1.49 0 0 0-.798-1.341c-.276-.127-.553-.211-.798-.211-.947 0-1.415.94-1.905 1.795l-.702 1.277 5.13 2.745.701-1.404zM9.236 24.42l-.063.127-.947-.454.063-.127c.213-.39.458-.792.894-.612a.5.5 0 0 1 .277.274c.032.243-.096.581-.213.792zM15.44 21.138l-2.639-2.133 3.778.855 1.01-1.277-4.447-3.685-.958 1.087 2.703 2.196-3.778-.855-1.075 1.256 4.512 3.685zM21.974 14.898l-.798-.919-1.628 1.246-.735-.845 1.48-1.224-.799-.94-1.479 1.214-.553-.728 1.628-1.278-.83-1.003-2.756 2.217 3.65 4.477zM26.794 12.026l-.606-1.066-1.852 1.013-2.203-3.96-1.287.73 2.82 5.025zM31.71 10.147l-.468-1.13-1.894.665-1.543-4.234-1.436.486 1.957 5.427zM37.606 9.196h.34c.798-.063 1.415-.338 1.745-.728s.458-1.003.394-1.68l-.277-3.62-1.468.063.276 3.294c.064 1.13-.393 1.34-.798 1.404h-.127c-.34 0-.798-.126-.947-1.277l-.277-3.294-1.468.126.276 3.622c.213 1.372.98 2.1 2.33 2.1zM44.267 5.786l1.224 3.569 1.691.274.735-5.796-1.416-.18-.457 3.41-1.234-3.621-1.618-.18-.798 5.691 1.405.18zM52.3 5.12l-1.404-.464-1.755 5.49 1.415.486zM59.611 8.341l-1.287-.665-2.83 2.861.584-3.928-1.415-.76-.851 6.124 1.468.665zM61.08 16.66l.734-1.002-1.596-1.278.68-.887 1.47 1.151.797-1.003-1.468-1.15.553-.74 1.596 1.288.83-1.013-2.862-2.154-3.554 4.561zM63.506 19.068l1.692-1.457.064.127c.213.274.213.338.064.665l-.947 1.732 1.074 1.214 1.139-2.28c.064-.064.127-.275.127-.455.458.211 1.075.127 1.565-.274 1.287-1.067.276-2.228-.458-3.073l-.947-1.066-4.384 3.811 1.043 1.067zm3.469-3.02.064.127c.213.275.394.55.394.729 0 .126-.064.21-.213.274-.064.127-.213.127-.277.127-.277 0-.553-.275-.67-.454l-.064-.127.766-.665zM68.912 23.693c-.277.21-.67-.127-.799-.391-.212-.338-.276-.665-.276-1.13v-.338l-1.352.613.064.274c.128.454.213.729.458 1.215.457.791 1.075 1.214 1.745 1.214.34 0 .617-.064.947-.275 1.01-.612.894-1.552.734-2.28-.064-.454-.128-.792.064-.94.128-.063.213-.063.277-.063.276 0 .457.274.553.338.213.274.277.612.34.94l.064.274 1.224-.55v-.126c-.064-.39-.276-.792-.553-1.278-.617-1.066-1.692-1.404-2.64-.792-1.01.613-.893 1.553-.733 2.228.095.581.149.919-.128 1.067zM74.437 25.406l-5.37 2.174.555 1.349 5.37-2.173zM74.988 30.851l-4.395 1.067.34 1.404 4.48-1.067.34 1.49 1.203-.275-1.075-4.414-1.234.338zM71.55 37.556l.064 1.488 2.299-.147 3.65 1.879-.085-1.605-2.15-1.014 2.022-1.277-.128-1.732-3.373 2.344zM7.332 51.07l1.234-.327L8.076 49l.884-.275.521 1.89 1.235-.39-.958-3.231L4.17 48.61l.405 1.394 2.298-.665zM12.525 55.917c.212-.666.127-1.405-.213-2.133-.554-1.067-1.352-1.616-2.426-1.616-.458 0-1.011.127-1.565.39-.894.392-1.415 1.004-1.692 1.733-.212.665-.127 1.404.213 2.132.554 1.003 1.352 1.616 2.426 1.616.458 0 1.011-.127 1.565-.391.893-.454 1.5-1.003 1.691-1.732m-2.278.337c-.34.212-.734.275-1.074.275-.554 0-.894-.211-1.075-.665-.128-.338-.213-.613-.064-.887.128-.39.553-.792 1.075-1.067.34-.126.67-.274 1.01-.274.554 0 .895.211 1.075.665.128.338.213.612.064.887-.149.39-.49.792-1.01 1.066M16.579 60.393l-2.64 2.07c-.67.549-1.223.612-1.627.126-.128-.21-.213-.39-.213-.612.064-.275.277-.612.67-.94l2.64-2.07-.948-1.129-2.915 2.28c-.618.455-.947 1.004-.947 1.616 0 .55.212 1.066.67 1.679.553.728 1.139 1.066 1.809 1.066.457 0 .947-.211 1.415-.612l2.916-2.344zM21.516 65.081l-2.15 2.682.799-3.748-1.288-1.067-3.713 4.477 1.17.95 2.139-2.682-.798 3.749 1.266 1.066 3.714-4.477zM25.847 67.826l-1.468-.728-2.64 5.142 1.47.728c.733.338 1.35.549 1.968.549 1.01 0 1.809-.549 2.362-1.615.862-1.732.277-3.073-1.692-4.086zm.277 3.442c-.277.612-.798.94-1.415.94-.277 0-.458-.064-.735-.211l-.34-.212 1.468-2.956.34.211c.395.211.671.55.799.887.128.454.064.855-.128 1.341zM29.071 75.47l3.47.94.33-1.214-2.023-.517.245-1.067 1.905.454.34-1.214-1.904-.454.212-.95 2.086.549.277-1.215-3.437-.855zM37.659 71.268l-1.692-.063-.34 5.754 1.691.063h.394c1.968 0 2.98-.94 3.096-2.745.064-.887-.127-1.615-.617-2.133-.521-.485-1.351-.823-2.543-.886zm-.053 4.54h-.394l.213-3.294h.393c.798.063 1.565.665 1.469 1.732-.096 1.098-.894 1.552-1.692 1.552zM45.948 70.783l-1.01 6.092 1.563-.338.213-1.278 1.905-.39.734 1.13 1.628-.339-3.437-5.141-1.596.274zm.958 3.22.213-1.552.798 1.277zM51.503 73.792l.521 1.404 1.352-.517-.458-1.341zM54.333 67.974l-1.468.792 2.767 5.089 1.468-.792c1.969-1.066 2.426-2.407 1.564-4.086-.894-1.731-2.362-2.07-4.33-1.003m2.363 3.875-.34.211-1.565-2.893.34-.211a1.4 1.4 0 0 1 .735-.211c.617 0 1.074.338 1.415.887.585.971.096 1.826-.585 2.227zM59.792 69.769l.83 1.225 1.192-.887-.798-1.183zM62.09 62.346l-.276 2.281 1.298.18.15-.909 2.766 2.735 1.075-1.003-4.118-4.17zM70.018 59.327c-.457-.338-1.01-.39-1.628-.211 0-.55-.276-1.067-.67-1.341-.734-.55-1.692-.212-2.426.728-.67.94-.618 1.89.212 2.47.394.275.948.339 1.416.212-.064.612.127 1.066.617 1.404.34.275.67.338 1.01.338.618 0 1.14-.338 1.693-1.003.393-.549.617-1.066.553-1.615-.096-.306-.372-.644-.766-.972zm-2.798.401c-.213.127-.394.274-.618.274-.063 0-.212 0-.276-.063-.277-.211-.128-.549 0-.728a.4.4 0 0 1 .34-.212c.064 0 .213.064.34.127.214.148.31.422.214.613zm2.032 1.605c-.213.274-.553.338-.798.127-.213-.212-.34-.391-.277-.792.394-.275.735-.338 1.011-.127a.4.4 0 0 1 .213.338.9.9 0 0 1-.149.454M72.625 53.689c-1.01-.454-1.968-.212-2.426.728-.128.275-.213.55-.128.792-.34-.275-.67-.729-.393-1.34.127-.275.34-.455.553-.666l.213-.127-1.075-.728-.128.127c-.276.274-.553.612-.734 1.002-.276.613-.34 1.13-.128 1.68.341.939 1.288 1.615 2.022 1.953.67.337 1.224.453 1.692.453.734 0 1.288-.337 1.692-1.066.458-1.182.064-2.196-1.17-2.798zm0 2.164c-.064.211-.276.275-.457.275-.128 0-.34-.064-.458-.127a1.6 1.6 0 0 1-.553-.454c-.064-.127 0-.211 0-.338.064-.211.213-.275.457-.275.128 0 .34.064.554.127.276.127.393.275.457.454.096.127 0 .243 0 .338M74.743 47.818c-1.139-.338-2.086.212-2.426 1.278 0 .127-.064.211-.064.274l-.67-.21.617-2.007-1.139-.338-1.01 3.347 3.255 1.003v-.274c0-.338.064-.613.128-.94.064-.275.394-.94 1.01-.792.671.211.554.94.459 1.13-.128.39-.341.665-.554.94l-.213.21 1.352.455.064-.127c.212-.39.393-.887.553-1.214.213-.665.213-1.278-.064-1.795-.277-.422-.766-.76-1.287-.94zM32.019 33.808l-.277-.148c-1.66-.887-4.416-2.503-4.416-3.717v-6.366h9.577v6.43c0 1.066-2.522 2.586-4.607 3.653zm-3.533-6.124v2.249c.128.39 1.724 1.552 3.533 2.523 1.873-.971 3.5-2.101 3.714-2.523v-2.25zm0-1.162h7.247v-1.795h-7.247z"/><path fill="#b31b1b" d="M40.298 79.979C18.079 79.979 0 62.04 0 39.984S18.08 0 40.298 0s40.298 17.939 40.298 39.984-18.08 39.984-40.298 39.984zm0-78.818c-21.57 0-39.127 17.422-39.127 38.823 0 21.402 17.557 38.833 39.137 38.833s39.138-17.42 39.138-38.833S61.878 1.161 40.298 1.161"/><path fill="#b31b1b" d="M40.298 69.199c-16.239 0-29.434-13.093-29.434-29.204S24.06 10.79 40.299 10.79 69.73 23.883 69.73 39.995 56.536 69.199 40.298 69.199m0-57.258c-15.59 0-28.274 12.575-28.274 28.054s12.674 28.053 28.274 28.053S68.57 55.473 68.57 39.995 55.898 11.94 40.298 11.94"/><path fill="#b31b1b" d="m48.523 33.808-.276-.148c-1.692-.887-4.512-2.503-4.512-3.717v-6.366h9.577v6.43c0 .855-1.533 2.069-4.512 3.653zm-3.618-3.896c.15.422 1.777 1.583 3.618 2.555 1.81-.972 3.405-2.101 3.618-2.524v-.792l-3.618-2.344-3.618 2.344zm3.618-4.509 3.618 2.344v-3.02h-7.214v3.02l3.586-2.344zM38.187 43.122l-4.05.183.062 1.34 4.05-.184zM38.189 46.81l-4.05.182.061 1.34 4.05-.183zM38.198 50.49l-4.05.183.06 1.34 4.05-.183zM31.806 43.922h-2.245v1.859h2.245zM31.71 49.212h-2.15v1.858h2.15z"/><path fill="#b31b1b" d="M39.744 55.03s-.798-.581-1.287-.518c-2.426.39-6.353.306-6.534.306h-.585V40.385l.649.064s3.097.337 5.863-.148c.947-.243 1.937 0 2.426.18.49-.148 1.565-.423 2.544-.18 2.766.485 5.831.148 5.863.148l.649-.064v14.433h-.585c-.181 0-4.203.095-6.63-.306-.521-.095-1.17.39-1.351.518l-.49.337-.521-.337zm-1.042-1.7c.67-.032 1.17.306 1.532.549.425-.275 1.288-.665 2.117-.518 1.778.307 4.608.307 5.832.307V41.663c-1.107.095-3.373.18-5.555-.211h-.064c-.894-.243-2.022.148-2.022.148l-.276.063h-.064s-1.107-.454-1.99-.211h-.064c-2.181.39-4.448.306-5.554.21v12.006c1.191 0 4.022 0 5.83-.307q.15-.03.278-.031"/><path fill="#b31b1b" d="m42.513 46.828-.061 1.339 4.05.182.06-1.339zM42.509 50.51l-.061 1.34 4.05.182.061-1.339zM51.077 43.922h-2.15v1.859h2.15zM51.077 49.212h-2.15v1.858h2.15zM42.51 43.21l-.05 1.34 4.05.152.052-1.34z"/><path fill="#b31b1b" d="M40.245 66.633 40 66.538c-.181-.095-4.576-2.038-9.056-5.48-6.012-4.624-9.268-9.682-9.364-14.676.213-10.663.032-24.854.032-25.002v-.58h37.446v.58c0 .148-.032 14.529-.032 25.002 0 4.994-3.224 10.052-9.332 14.676-4.544 3.442-9.024 5.417-9.205 5.48zm.574-30.175V65.06c3.501-1.71 16.973-8.922 16.973-18.73v-9.893l-16.973.031zm-17.951 0c0 3.315-.032 6.757-.096 9.893.128 5.786 4.916 10.685 8.907 13.736 3.256 2.502 6.512 4.234 7.98 4.962V36.447H22.868zm0-1.162h34.956c0-6.124.032-11.603.032-13.366H22.771c.032 1.763.096 7.221.096 13.366"/></svg>