<svg xmlns="http://www.w3.org/2000/svg" width="339" height="69" fill="none" viewBox="0 0 339 69"><path fill="#fff" d="M245.899 39.499h-4.811a.51.51 0 0 1-.481-.354l-7.948-25.035a.507.507 0 0 1 .481-.662h4.81a.51.51 0 0 1 .481.353l7.949 25.035a.507.507 0 0 1-.481.663M258.324 39.499h-4.81a.51.51 0 0 1-.481-.354l-7.949-25.035a.507.507 0 0 1 .481-.662h4.811c.218 0 .41.143.481.353l7.948 25.035a.507.507 0 0 1-.481.663M262.911 13.807a.51.51 0 0 0-.481-.354h-4.811a.508.508 0 0 0-.481.657l4.455 14.028c.148.469.809.469.957 0l2.356-7.42c.066-.204.066-.42 0-.624l-1.995-6.293zM187.477 39.499h-15.361a.696.696 0 0 1-.683-.685V1.26c0-.403.339-.746.683-.746h12.185c3.007 0 6.237.403 8.9 2.291 2.323 1.601 3.968 4.124 3.968 7.613 0 4.179-1.924 7.039-5.045 8.474v.226c5.499 1.088 8.222 4.753 8.222 9.904 0 7.27-6.407 10.478-12.869 10.478m.902-32.687c-1.131-.745-2.553-1.087-4.023-1.087h-6.577v11.394h6.008c1.476 0 3.061-.116 4.308-.745 1.53-.8 2.668-2.407 2.668-4.925 0-2.23-.963-3.72-2.384-4.637m2.438 16.374c-1.361-.745-3.176-.916-6.068-.916h-6.97v12.023h8.331c1.586 0 3.062-.171 4.308-.685 2.039-.86 3.461-2.517 3.461-5.382 0-2.12-.963-4.008-3.062-5.04M207.769 16.716c2.493-2.346 5.953-3.776 9.807-3.776s7.315 1.43 9.807 3.776c2.493 2.407 3.969 5.78 3.969 9.788s-1.416 7.496-3.969 9.848c-2.438 2.346-6.008 3.72-9.807 3.72s-7.369-1.374-9.807-3.72c-2.553-2.346-4.023-5.78-4.023-9.848s1.53-7.387 4.023-9.788m3.969 15.915c1.416 1.546 3.46 2.518 5.838 2.518s4.363-.972 5.784-2.518c1.416-1.6 2.269-3.665 2.269-6.127 0-2.463-.853-4.522-2.269-6.128-1.416-1.546-3.46-2.517-5.784-2.517s-4.422.971-5.838 2.517c-1.416 1.6-2.214 3.665-2.214 6.128s.793 4.52 2.214 6.127M289.473 33.377c.508-.288.853-.116 1.022.17l1.531 2.86c.229.343.055.685-.284.917-2.1 1.49-5.839 2.749-9.753 2.749-4.307 0-7.822-1.43-10.206-4.008-2.269-2.407-3.57-5.84-3.57-9.904 0-3.776 1.362-7.099 3.63-9.5 2.154-2.291 5.33-3.666 9.408-3.666 4.423 0 7.708 1.662 9.692 4.295 1.87 2.462 2.663 6.067 2.439 10.02-.055.458-.339.8-.793.8h-18.253c.169 2.06.853 3.605 1.93 4.808 1.416 1.662 3.569 2.518 6.122 2.518 2.777 0 5.101-.861 7.085-2.06m-1.7-9.22c-.115-1.832-.623-3.262-1.7-4.466-1.077-1.203-2.723-2.003-4.876-2.003s-4.024.8-5.161 2.12c-.962 1.142-1.585 2.688-1.7 4.35zM304.069 38.814c0 .403-.284.685-.678.685h-4.422c-.4 0-.739-.287-.739-.685V14.138c0-.342.339-.685.739-.685h4.192c.399 0 .738.343.738.685v2.517h.17c1.585-2.407 3.799-3.665 6.746-3.665 2.438 0 4.592.745 6.237 2.12.339.287.454.684.284.971l-1.645 3.434c-.17.342-.569.458-1.022.17-1.476-.915-2.892-1.49-4.762-1.49-4.422 0-5.838 4.637-5.838 8.7zM332.315 32.57c0-1.716-1.361-2.462-3.062-3.262-1.585-.745-3.908-1.375-5.838-2.291-2.777-1.32-4.253-3.434-4.253-6.696 0-4.582 3.515-7.387 9.807-7.387 3.799 0 6.347.917 8.216 1.95.454.231.509.573.339.915l-1.585 3.263c-.229.403-.508.458-.907.226-1.87-1.032-3.854-1.545-5.724-1.545-2.438 0-4.138.745-4.138 2.462 0 1.49 1.246 2.23 2.777 2.92 1.76.745 3.969 1.43 5.723 2.291 3.346 1.662 4.647 3.666 4.647 6.641 0 4.753-3.909 8.016-10.206 8.016-4.362 0-7.2-1.088-9.015-2.291-.338-.226-.453-.513-.284-.861l1.586-3.263c.169-.403.508-.513.907-.287 2.039 1.32 4.253 2.12 6.522 2.12 2.607 0 4.477-.916 4.477-2.92zM0 19.979C0 8.816 9.07 0 20.407 0c5.445 0 9.069 1.43 11.737 2.92.453.227.568.63.339.972L30.498 8.07c-.17.458-.568.458-.907.287-2.384-1.259-5.215-2.578-9.354-2.578-7.369 0-13.66 6.299-13.66 14.199 0 8.473 6.177 14.309 13.715 14.309 4.084 0 7.145-1.26 9.523-2.634.399-.232.678-.17.907.232l1.985 4.295c.17.403.114.684-.34.916-2.946 1.601-6.576 2.976-12.13 2.976C8.277 40.073 0 32.228 0 19.979M38.715 16.716c2.492-2.346 5.953-3.776 9.807-3.776s7.314 1.43 9.807 3.776c2.492 2.407 3.968 5.78 3.968 9.788S60.882 34 58.33 36.352c-2.438 2.346-6.008 3.72-9.807 3.72s-7.37-1.374-9.807-3.72c-2.553-2.346-4.024-5.78-4.024-9.848s1.53-7.387 4.023-9.788m3.968 15.915c1.416 1.546 3.46 2.518 5.839 2.518 2.378 0 4.362-.972 5.783-2.518 1.416-1.6 2.269-3.665 2.269-6.127 0-2.463-.853-4.522-2.269-6.128-1.416-1.546-3.46-2.517-5.783-2.517s-4.423.971-5.839 2.517c-1.416 1.6-2.214 3.665-2.214 6.128s.793 4.52 2.214 6.127M72.312 38.814c0 .403-.284.685-.678.685h-4.422c-.4 0-.738-.287-.738-.685V14.138c0-.342.339-.685.738-.685h4.193c.399 0 .738.343.738.685v2.517h.17c1.584-2.407 3.799-3.665 6.745-3.665 2.438 0 4.592.745 6.237 2.12.34.287.454.684.285.971l-1.646 3.434c-.17.342-.568.458-1.022.17-1.476-.915-2.892-1.49-4.762-1.49-4.422 0-5.838 4.637-5.838 8.7zM113.186 38.814c0 .403-.284.685-.678.685h-4.477c-.399 0-.678-.287-.678-.685V25.306c0-2.347-.339-4.466-1.645-5.84-.908-.917-2.214-1.491-4.139-1.491-2.607 0-4.646 1.203-5.898 3.433-.962 1.772-1.361 3.947-1.361 6.067V38.81c0 .403-.284.684-.678.684H89.21c-.4 0-.738-.287-.738-.684V14.138c0-.342.338-.685.738-.685h4.192c.4 0 .738.343.738.685v2.804h.17c1.87-2.633 4.816-4.008 8.391-4.008 2.947 0 5.614.746 7.484 2.463 1.93 1.716 3.006 4.52 3.006 8.473v14.944zM138.453 33.377c.508-.288.852-.116 1.022.17l1.531 2.86c.229.343.054.685-.285.917-2.099 1.49-5.838 2.749-9.752 2.749-4.308 0-7.823-1.43-10.206-4.008-2.269-2.407-3.57-5.84-3.57-9.904 0-3.776 1.361-7.099 3.63-9.5 2.154-2.291 5.33-3.666 9.408-3.666 4.422 0 7.708 1.662 9.692 4.295 1.87 2.462 2.662 6.067 2.438 10.02-.054.458-.339.8-.792.8h-18.253c.169 2.06.852 3.605 1.929 4.808 1.416 1.662 3.57 2.518 6.123 2.518 2.777 0 5.1-.861 7.085-2.06m-1.7-9.22c-.115-1.832-.624-3.262-1.701-4.466-1.077-1.203-2.722-2.003-4.876-2.003s-4.023.8-5.16 2.12c-.962 1.142-1.586 2.688-1.7 4.35zM147.943.513h4.422c.399 0 .678.343.678.746v37.555c0 .403-.284.685-.678.685h-4.422c-.399 0-.738-.287-.738-.685V1.26c0-.403.339-.746.738-.746M160.078.513h4.423c.399 0 .678.343.678.746v37.555c0 .403-.284.685-.678.685h-4.423c-.399 0-.737-.287-.737-.685V1.26c0-.403.338-.746.737-.746M1.837 58.693c0-3.45 2.848-6.276 6.336-6.276 1.727 0 2.864.485 3.7.971.126.072.159.16.11.27l-.427.9c-.054.127-.158.11-.251.056-.733-.414-1.711-.9-3.17-.9-2.62 0-4.828 2.263-4.828 4.98 0 2.986 2.225 5.017 4.844 5.017 1.443 0 2.476-.469 3.203-.916.11-.072.18-.055.252.055l.426.933c.038.088.016.16-.088.232-.907.519-2.05.988-3.81.988-3.597 0-6.303-2.478-6.303-6.31zM14.383 57.777c.765-.773 1.853-1.22 3.06-1.22 1.209 0 2.297.447 3.062 1.22.75.74 1.192 1.777 1.192 3.003s-.443 2.263-1.192 3.003c-.765.773-1.853 1.22-3.061 1.22s-2.296-.447-3.061-1.22c-.75-.74-1.192-1.777-1.192-3.003s.443-2.263 1.192-3.003m.89 5.2c.515.59 1.28.955 2.17.955.892 0 1.657-.359 2.171-.955.514-.557.804-1.33.804-2.191 0-.862-.284-1.635-.804-2.192-.514-.59-1.279-.955-2.17-.955s-1.656.359-2.17.955c-.514.557-.804 1.33-.804 2.192 0 .86.284 1.634.804 2.191M23.873 52.582h.962c.087 0 .158.088.158.182v11.902a.16.16 0 0 1-.158.16h-.962c-.088 0-.18-.071-.18-.16V52.765c0-.088.087-.182.18-.182M27.628 52.582h.962c.088 0 .159.088.159.182v11.902a.16.16 0 0 1-.159.16h-.962c-.087 0-.18-.071-.18-.16V52.765c0-.088.087-.182.18-.182M37.512 63.21c.142-.09.23-.04.268.038l.339.662c.054.089.016.16-.072.232-.655.447-1.814.861-3.06.861-1.335 0-2.439-.469-3.171-1.314-.678-.756-1.05-1.8-1.05-3.02 0-1.148.394-2.191 1.066-2.93s1.656-1.188 2.936-1.188c1.279 0 2.296.52 2.919 1.292.585.756.907 1.816.836 3.092 0 .127-.087.198-.213.198h-6.194c.055.685.285 1.314.694 1.8.514.63 1.302.988 2.28.988.979 0 1.76-.325 2.422-.718zm-.235-3.02c-.038-.74-.268-1.348-.656-1.8-.41-.447-1.05-.773-1.853-.773-.892 0-1.57.326-2.012.845-.372.447-.607 1.076-.64 1.727zM45.515 67.234c.41-.47.607-1.132.607-2.015v-1.044c-.733.613-1.498.812-2.406.812-1.137 0-1.995-.431-2.596-1.115-.694-.79-1.05-1.905-1.05-3.108s.323-2.286 1.017-3.092c.607-.684 1.476-1.115 2.618-1.115a3.68 3.68 0 0 1 2.406.845h.055v-.52c0-.088.07-.181.158-.181h.924c.11 0 .18.088.18.182v8.197c0 1.292-.322 2.302-1.017 2.987-.623.63-1.569.933-2.777.933s-2.224-.375-2.935-.861c-.088-.055-.126-.127-.071-.215l.355-.718c.055-.088.142-.127.268-.039.656.447 1.443.773 2.405.773.853 0 1.476-.254 1.87-.701zm.607-8.668c-.465-.375-1.137-.933-2.263-.933-.782 0-1.389.326-1.783.828-.48.591-.694 1.42-.694 2.286 0 .916.213 1.761.678 2.335.41.502.979.812 1.782.812.946 0 1.673-.343 2.28-.862zM56.202 63.21c.142-.09.23-.04.268.038l.339.662c.055.089.016.16-.071.232-.656.447-1.815.861-3.061.861-1.334 0-2.438-.469-3.171-1.314-.678-.756-1.05-1.8-1.05-3.02 0-1.148.394-2.191 1.066-2.93.673-.74 1.657-1.188 2.936-1.188 1.28 0 2.296.52 2.92 1.292.584.756.907 1.816.836 3.092 0 .127-.088.198-.214.198h-6.193c.054.685.284 1.314.694 1.8.514.63 1.3.988 2.28.988.978 0 1.76-.325 2.421-.718zm-.235-3.02c-.038-.74-.268-1.348-.656-1.8-.41-.447-1.05-.773-1.853-.773-.891 0-1.569.326-2.012.845-.371.447-.607 1.076-.64 1.727zM64.495 57.777c.765-.773 1.853-1.22 3.061-1.22s2.296.447 3.062 1.22c.749.74 1.191 1.777 1.191 3.003s-.442 2.263-1.191 3.003c-.766.773-1.854 1.22-3.062 1.22s-2.296-.447-3.061-1.22c-.749-.74-1.192-1.777-1.192-3.003s.443-2.263 1.192-3.003m.891 5.2c.514.59 1.28.955 2.17.955.891 0 1.657-.359 2.17-.955.514-.557.804-1.33.804-2.191 0-.862-.284-1.635-.803-2.192-.514-.59-1.28-.955-2.17-.955-.892 0-1.657.359-2.171.955-.514.557-.804 1.33-.804 2.192 0 .86.285 1.634.804 2.191M75.712 53.984c-.284.343-.371.884-.371 1.563v1.148h2.405c.088 0 .159.088.159.182v.701a.16.16 0 0 1-.159.16h-2.405v6.923c0 .088-.071.16-.18.16h-.963a.16.16 0 0 1-.158-.16v-6.923h-1.034c-.087 0-.18-.072-.18-.16v-.7c0-.09.088-.183.18-.183h1.034V55.42c0-.933.18-1.8.71-2.358.394-.397.962-.629 1.744-.629.979 0 1.832.326 2.384.757.087.055.109.16.07.231l-.322.663c-.055.11-.18.127-.284.055-.498-.398-1.017-.59-1.585-.59-.482 0-.82.143-1.05.43zM83.743 58.693c0-3.45 2.848-6.276 6.336-6.276 1.727 0 2.864.485 3.7.971.126.072.16.16.11.27l-.426.9c-.055.127-.159.11-.252.056-.733-.414-1.711-.9-3.17-.9-2.62 0-4.828 2.263-4.828 4.98 0 2.986 2.225 5.017 4.844 5.017 1.443 0 2.476-.469 3.203-.916.11-.072.18-.055.252.055l.426.933c.038.088.016.16-.087.232-.908.519-2.05.988-3.81.988-3.598 0-6.304-2.478-6.304-6.31zM96.289 57.777c.765-.773 1.853-1.22 3.061-1.22s2.296.447 3.061 1.22c.749.74 1.192 1.777 1.192 3.003s-.443 2.263-1.192 3.003c-.765.773-1.853 1.22-3.061 1.22s-2.296-.447-3.061-1.22c-.75-.74-1.192-1.777-1.192-3.003s.443-2.263 1.192-3.003m.89 5.2c.515.59 1.28.955 2.171.955s1.656-.359 2.17-.955c.514-.557.804-1.33.804-2.191 0-.862-.284-1.635-.804-2.192-.514-.59-1.279-.955-2.17-.955s-1.656.359-2.17.955c-.514.557-.804 1.33-.804 2.192 0 .86.284 1.634.804 2.191M106.916 57.672c.536-.718 1.334-1.115 2.35-1.115.678 0 1.318.16 1.815.54.394.288.678.663.853 1.15a2.9 2.9 0 0 1 1.066-1.26c.481-.303 1.066-.43 1.657-.43.836 0 1.618.215 2.192.79.513.502.852 1.291.852 2.478v4.836a.16.16 0 0 1-.158.16h-.979c-.087 0-.18-.072-.18-.16v-4.51c0-.828-.18-1.49-.536-1.888-.339-.376-.836-.558-1.459-.558-.656 0-1.247.254-1.618.861-.339.575-.465 1.314-.465 2.23v3.865a.16.16 0 0 1-.159.16h-.978c-.088 0-.181-.072-.181-.16v-4.51c0-.828-.18-1.49-.535-1.888-.339-.376-.837-.558-1.46-.558-.656 0-1.246.254-1.618.861-.284.486-.465 1.204-.465 2.048v4.047a.16.16 0 0 1-.158.16h-.979c-.087 0-.18-.072-.18-.16v-7.784c0-.088.087-.182.18-.182h.908c.087 0 .18.088.18.182v.79h.055zM122.698 56.557c1.388 0 2.597.375 3.455 1.17.749.701 1.23 1.728 1.23 3.037s-.394 2.301-1.017 2.964c-.82.916-2.028 1.275-3.061 1.275-.766 0-1.301-.088-1.886-.359v4.174a.16.16 0 0 1-.159.16h-.962c-.087 0-.18-.072-.18-.16V57.004c0-.11.054-.199.196-.232.64-.127 1.531-.215 2.384-.215m-1.285 6.994c.536.27 1.017.376 1.76.376.678 0 1.498-.216 2.1-.828.497-.486.803-1.276.803-2.335 0-.972-.3-1.728-.853-2.264-.584-.574-1.426-.883-2.405-.883-.465 0-.978.055-1.405.11zM129.28 56.883c0-.089.071-.183.158-.183h.962a.18.18 0 0 1 .181.183v4.388c0 .718.087 1.149.322 1.585.339.574 1.017.988 2.083.988s1.76-.398 2.066-.972c.252-.43.323-.883.323-1.6v-4.39c0-.088.087-.181.18-.181h.962c.088 0 .159.088.159.182v4.51c0 1.043-.18 1.69-.585 2.302-.568.845-1.656 1.314-3.1 1.314-1.443 0-2.547-.47-3.115-1.314-.41-.613-.585-1.259-.585-2.302v-4.51zM140.628 61.967c0 .558.071 1.005.268 1.314.23.397.623.59 1.263.59.481 0 .946-.127 1.46-.502.125-.088.213-.072.267.017l.323.7c.055.09.016.16-.071.233-.623.447-1.443.684-2.296.684-.962 0-1.585-.303-1.974-.79-.41-.518-.552-1.274-.552-2.086v-4.389h-.945c-.088 0-.181-.072-.181-.16v-.7c0-.09.088-.183.181-.183h.945v-1.562c0-.089.088-.183.181-.183h.962c.087 0 .18.089.18.183v1.562h2.794c.087 0 .18.088.18.182v.701c0 .088-.087.16-.18.16h-2.794v4.223zM145.423 52.836c0-.43.355-.773.781-.773s.782.343.782.773-.355.79-.782.79a.78.78 0 0 1-.781-.79m.322 3.864h.962c.088 0 .159.089.159.183v7.783a.16.16 0 0 1-.159.16h-.962c-.087 0-.18-.071-.18-.16v-7.783c0-.089.087-.183.18-.183M150.649 58.086c.552-1.06 1.618-1.53 2.815-1.53.962 0 1.76.233 2.334.74.623.558.962 1.458.962 2.717v4.654c0 .088-.087.16-.18.16h-.946c-.087 0-.18-.072-.18-.16V60.3c0-.9-.181-1.618-.656-2.07-.356-.343-.853-.52-1.586-.52-.923 0-1.656.415-2.099 1.243-.339.646-.464 1.418-.464 2.142v3.577a.16.16 0 0 1-.159.16h-.978c-.088 0-.181-.072-.181-.16v-7.784c0-.088.088-.182.181-.182h.907c.087 0 .18.088.18.182v1.204h.055zM164.146 67.234c.41-.47.606-1.132.606-2.015v-1.044c-.732.613-1.497.812-2.405.812-1.137 0-1.995-.431-2.596-1.115-.695-.79-1.05-1.905-1.05-3.108s.322-2.286 1.017-3.092c.607-.684 1.476-1.115 2.618-1.115 1.143 0 1.886.43 2.406.845h.054v-.52c0-.088.071-.181.159-.181h.924a.18.18 0 0 1 .18.182v8.197c0 1.292-.323 2.302-1.017 2.987-.623.63-1.569.933-2.777.933s-2.225-.375-2.935-.861c-.088-.055-.126-.127-.072-.215l.356-.718c.055-.088.142-.127.268-.039.656.447 1.443.773 2.405.773.853 0 1.476-.254 1.87-.701zm.606-8.668c-.464-.375-1.137-.933-2.263-.933-.781 0-1.388.326-1.782.828-.481.591-.694 1.42-.694 2.286 0 .916.213 1.761.678 2.335.41.502.978.812 1.782.812.946 0 1.673-.343 2.279-.862zM177.44 57.87h3.526a.16.16 0 0 1 .159.16v.9c0 .089-.071.183-.159.183h-3.526v3.544c0 .088-.071.182-.158.182h-.891a.195.195 0 0 1-.181-.182v-3.544h-3.509c-.088 0-.159-.088-.159-.182v-.9a.16.16 0 0 1 .159-.16h3.509v-3.544c0-.089.088-.182.181-.182h.891c.087 0 .158.088.158.182zM188.92 52.582c.088 0 .181.088.181.182v11.902c0 .089-.088.16-.181.16h-1.088a.16.16 0 0 1-.158-.16V52.765c0-.088.071-.182.158-.182zM193.069 58.086c.553-1.06 1.619-1.53 2.816-1.53.962 0 1.76.233 2.334.74.623.558.962 1.458.962 2.717v4.654c0 .088-.087.16-.18.16h-.946c-.087 0-.18-.072-.18-.16V60.3c0-.9-.181-1.618-.656-2.07-.356-.343-.853-.52-1.586-.52-.924 0-1.656.415-2.099 1.243-.339.646-.465 1.418-.465 2.142v3.577a.16.16 0 0 1-.158.16h-.979c-.087 0-.18-.072-.18-.16v-7.784c0-.088.087-.182.18-.182h.908c.087 0 .18.088.18.182v1.204h.055zM203.511 53.984c-.285.343-.372.884-.372 1.563v1.148h2.405c.088 0 .159.088.159.182v.701a.16.16 0 0 1-.159.16h-2.405v6.923c0 .088-.071.16-.18.16h-.963a.16.16 0 0 1-.158-.16v-6.923h-1.033c-.088 0-.181-.072-.181-.16v-.7c0-.09.088-.183.181-.183h1.033V55.42c0-.933.18-1.8.711-2.358.393-.397.962-.629 1.743-.629.979 0 1.832.326 2.384.757.087.055.109.16.071.231l-.323.663c-.054.11-.18.127-.284.055-.497-.398-1.017-.59-1.585-.59-.481 0-.82.143-1.05.43zM207.796 57.777c.766-.773 1.854-1.22 3.062-1.22s2.296.447 3.061 1.22c.749.74 1.192 1.777 1.192 3.003s-.443 2.263-1.192 3.003c-.765.773-1.853 1.22-3.061 1.22s-2.296-.447-3.062-1.22c-.748-.74-1.191-1.777-1.191-3.003s.443-2.263 1.191-3.003m.886 5.2c.514.59 1.279.955 2.17.955s1.657-.359 2.171-.955c.513-.557.803-1.33.803-2.191 0-.862-.284-1.635-.803-2.192-.514-.59-1.28-.955-2.171-.955s-1.656.359-2.17.955c-.514.557-.804 1.33-.804 2.192 0 .86.285 1.634.804 2.191M219.025 58.478c-.443.613-.607 1.584-.607 2.374v3.809a.16.16 0 0 1-.158.16h-.979c-.087 0-.18-.072-.18-.16v-7.784c0-.088.087-.182.18-.182h.907c.088 0 .181.088.181.182v.988h.055c.41-.86 1.191-1.314 2.263-1.314.781 0 1.405.232 1.924.646.087.072.109.144.055.232l-.394.812c-.055.088-.158.11-.268.038-.426-.303-.907-.519-1.53-.519-.585 0-1.088.232-1.444.718zM225.328 57.672c.536-.718 1.334-1.115 2.351-1.115.677 0 1.317.16 1.814.54.394.288.678.663.853 1.15a2.9 2.9 0 0 1 1.066-1.26c.481-.303 1.066-.43 1.657-.43.836 0 1.618.215 2.192.79.514.502.852 1.291.852 2.478v4.836a.16.16 0 0 1-.158.16h-.979c-.087 0-.18-.072-.18-.16v-4.51c0-.828-.18-1.49-.536-1.888-.339-.376-.836-.558-1.459-.558-.656 0-1.247.254-1.618.861-.339.575-.465 1.314-.465 2.23v3.865a.16.16 0 0 1-.159.16h-.978c-.088 0-.181-.072-.181-.16v-4.51c0-.828-.18-1.49-.535-1.888-.339-.376-.837-.558-1.46-.558-.656 0-1.246.254-1.618.861-.284.486-.465 1.204-.465 2.048v4.047a.16.16 0 0 1-.158.16h-.979c-.087 0-.18-.072-.18-.16v-7.784c0-.088.087-.182.18-.182h.908c.087 0 .18.088.18.182v.79h.055zM238.896 58.357c-.126.071-.213.038-.251-.056l-.301-.662c-.055-.11-.038-.16.087-.232.82-.557 1.957-.845 3.062-.845.765 0 1.711.144 2.35.884.41.469.656 1.148.656 2.191v5.035a.16.16 0 0 1-.158.16h-.837a.16.16 0 0 1-.158-.16v-.287h-.071c-.82.486-1.531.63-2.422.63-.733 0-1.443-.183-1.995-.575-.536-.397-.908-.988-.908-1.816 0-1.115.678-1.745 1.657-2.12 1.087-.414 2.525-.519 3.597-.574v-.27c0-.718-.126-1.149-.41-1.491-.356-.414-.924-.541-1.46-.541-1.017 0-1.76.342-2.438.74zm4.308 5.084v-2.534c-.837.039-1.832.088-2.652.326-.765.199-1.355.59-1.355 1.314 0 1.004 1.033 1.418 2.028 1.418.678 0 1.355-.198 1.973-.519zM248.326 61.967c0 .558.071 1.005.268 1.314.229.397.623.59 1.263.59.481 0 .945-.127 1.459-.502.126-.088.213-.072.268.017l.322.7c.055.09.017.16-.071.233-.623.447-1.443.684-2.296.684-.962 0-1.585-.303-1.973-.79-.41-.518-.552-1.274-.552-2.086v-4.389h-.946c-.087 0-.18-.072-.18-.16v-.7c0-.09.087-.183.18-.183h.946v-1.562c0-.089.087-.183.18-.183h.962c.088 0 .181.089.181.183v1.562h2.793c.088 0 .181.088.181.182v.701c0 .088-.088.16-.181.16h-2.793v4.223zM253.12 52.836c0-.43.355-.773.782-.773.426 0 .782.343.782.773s-.356.79-.782.79a.78.78 0 0 1-.782-.79m.323 3.864h.962c.087 0 .158.089.158.183v7.783a.16.16 0 0 1-.158.16h-.962c-.088 0-.181-.071-.181-.16v-7.783c0-.089.088-.183.181-.183M257.717 57.777c.766-.773 1.854-1.22 3.062-1.22s2.296.447 3.061 1.22c.749.74 1.192 1.777 1.192 3.003s-.443 2.263-1.192 3.003c-.765.773-1.853 1.22-3.061 1.22s-2.296-.447-3.062-1.22c-.748-.74-1.191-1.777-1.191-3.003s.443-2.263 1.191-3.003m.892 5.2c.513.59 1.279.955 2.17.955s1.656-.359 2.17-.955c.514-.557.804-1.33.804-2.191 0-.862-.285-1.635-.804-2.192-.514-.59-1.279-.955-2.17-.955s-1.657.359-2.17.955c-.514.557-.804 1.33-.804 2.192 0 .86.284 1.634.804 2.191M268.345 58.086c.552-1.06 1.618-1.53 2.815-1.53.962 0 1.76.233 2.334.74.623.558.962 1.458.962 2.717v4.654c0 .088-.087.16-.18.16h-.946c-.087 0-.18-.072-.18-.16V60.3c0-.9-.181-1.618-.656-2.07-.356-.343-.853-.52-1.586-.52-.923 0-1.656.415-2.099 1.243-.339.646-.464 1.418-.464 2.142v3.577a.16.16 0 0 1-.159.16h-.979c-.087 0-.18-.072-.18-.16v-7.784c0-.088.088-.182.18-.182h.908c.087 0 .18.088.18.182v1.204h.055zM280.945 63.838c-.109-.055-.142-.143-.087-.254l.442-.916c.039-.088.11-.127.23-.055.749.486 1.853 1.17 3.471 1.17.853 0 1.531-.215 1.996-.557.535-.414.803-1.027.803-1.728 0-.933-.656-1.49-1.547-1.872-1.049-.469-2.241-.629-3.509-1.258-1.05-.52-1.815-1.292-1.815-2.661 0-.972.355-1.778 1.049-2.358.733-.59 1.815-.932 3.258-.932s2.706.397 3.526.86c.11.073.126.144.071.255l-.426.9c-.055.11-.142.143-.251.071-.892-.519-1.974-.844-2.991-.844-1.016 0-1.727.232-2.17.646-.372.342-.568.789-.568 1.347 0 .9.694 1.402 1.76 1.8 1.208.446 2.454.612 3.58 1.275.837.485 1.586 1.313 1.586 2.644 0 1.187-.481 2.103-1.279 2.732-.749.591-1.815.9-3.045.9-1.886 0-3.22-.613-4.078-1.17zM297.197 63.408c.126-.089.23-.055.268.038l.355.663c.055.088 0 .16-.087.232-.64.43-1.569.662-2.509.662-1.356 0-2.477-.43-3.22-1.22-.711-.718-1.104-1.76-1.104-3.003 0-1.076.339-1.993.907-2.677.82-1.005 2.067-1.546 3.439-1.546.945 0 1.815.27 2.454.718.088.071.142.143.088.231l-.372.685q-.08.164-.268.055a3.4 3.4 0 0 0-1.902-.557c-.924 0-1.761.358-2.313 1.026-.442.52-.71 1.22-.71 2.07 0 .934.3 1.706.82 2.264.519.557 1.279.861 2.225.861.677 0 1.317-.127 1.94-.502zM299.417 52.836c0-.43.355-.773.781-.773s.782.343.782.773-.355.79-.782.79a.78.78 0 0 1-.781-.79m.322 3.864h.962c.088 0 .159.089.159.183v7.783a.16.16 0 0 1-.159.16h-.962c-.087 0-.18-.071-.18-.16v-7.783c0-.089.087-.183.18-.183M309.601 63.21c.142-.09.23-.04.268.038l.339.662c.055.089.016.16-.071.232-.656.447-1.815.861-3.062.861-1.333 0-2.438-.469-3.17-1.314-.678-.756-1.05-1.8-1.05-3.02 0-1.148.394-2.191 1.066-2.93.673-.74 1.657-1.188 2.936-1.188s2.296.52 2.919 1.292c.585.756.907 1.816.836 3.092 0 .127-.087.198-.213.198h-6.193c.054.685.284 1.314.694 1.8.514.63 1.301.988 2.279.988.979 0 1.761-.325 2.422-.718zm-.23-3.02c-.038-.74-.267-1.348-.656-1.8-.41-.447-1.049-.773-1.853-.773-.891 0-1.569.326-2.011.845-.372.447-.607 1.076-.64 1.727zM313.925 58.086c.552-1.06 1.618-1.53 2.815-1.53.963 0 1.761.233 2.335.74.623.558.962 1.458.962 2.717v4.654c0 .088-.088.16-.181.16h-.945c-.088 0-.181-.072-.181-.16V60.3c0-.9-.18-1.618-.656-2.07-.355-.343-.853-.52-1.585-.52-.924 0-1.656.415-2.099 1.243-.339.646-.465 1.418-.465 2.142v3.577a.16.16 0 0 1-.158.16h-.979c-.087 0-.18-.072-.18-.16v-7.784c0-.088.087-.182.18-.182h.908c.087 0 .18.088.18.182v1.204h.055zM328.248 63.408c.125-.089.229-.055.267.038l.356.663c.054.088 0 .16-.088.232-.639.43-1.569.662-2.509.662-1.356 0-2.476-.43-3.22-1.22-.71-.718-1.104-1.76-1.104-3.003 0-1.076.339-1.993.908-2.677.819-1.005 2.066-1.546 3.438-1.546.946 0 1.815.27 2.455.718.087.071.142.143.087.231l-.372.685q-.08.164-.268.055a3.4 3.4 0 0 0-1.902-.557c-.924 0-1.76.358-2.312 1.026-.443.52-.711 1.22-.711 2.07 0 .934.301 1.706.82 2.264s1.279.861 2.225.861c.678 0 1.317-.127 1.941-.502zM336.65 63.21c.142-.09.229-.04.268.038l.339.662c.054.089.016.16-.071.232-.656.447-1.815.861-3.062.861-1.334 0-2.438-.469-3.17-1.314-.678-.756-1.05-1.8-1.05-3.02 0-1.148.394-2.191 1.066-2.93s1.656-1.188 2.936-1.188c1.279 0 2.296.52 2.919 1.292.585.756.907 1.816.836 3.092 0 .127-.087.198-.213.198h-6.194c.055.685.285 1.314.695 1.8.513.63 1.301.988 2.279.988.979 0 1.76-.325 2.422-.718zm-.23-3.02c-.038-.74-.268-1.348-.656-1.8-.41-.447-1.049-.773-1.853-.773-.891 0-1.569.326-2.012.845-.371.447-.606 1.076-.639 1.727z"/></svg>