<svg xmlns="http://www.w3.org/2000/svg" width="400" height="400" viewBox="0 -251 400 400"><path fill="#b8432a" fill-rule="evenodd" d="m86.202 28.864-.228 1.828.457 8.226h17.367l.457-.457-.229-1.828.229-7.083-.457-.686-.457-.229-10.512.229-5.941-.229zm302.09-215.484h-1.6l-1.142.457h-1.371l-3.428.914-2.742.228-3.428.686-.914.457-4.799.685-1.142.457h-1.6l-2.513.457-.914.457h-2.057l-6.627 1.371-3.199.229-2.742.685h-1.828l-3.2.686h-2.284l-2.97.686h-2.057l-3.428.685h-2.514l-2.056.457h-4.113l-3.2.457-17.595.229-16.681-.914-1.6-.457-8.226-.457-1.37-.457-11.883-.915h-20.566l-2.514.229-1.37.457h-3.429l-5.027.686-.914.457-4.341.457-2.286.685-2.285.229-.685.457-5.941 1.142-1.6.686h-.914l-1.371.685h-1.143l-1.142.686-1.371.228-2.97 1.371h-.686l-1.143.686-1.142.228-.458.457-5.484 2.286-5.255 2.97-1.372.457-.685.686-.914.228-.686.686-1.828.914-.914.914-1.37.457-1.372 1.142-1.142-.228-2.057 1.37h-.457l-12.34 8.684-3.656 1.828-1.37.229-.686.457-8.227 1.142h-5.712l-6.399-.685h-5.94l-1.6.457-3.885.228-1.143.457h-1.142l-2.057.686h-.914l-2.97.914-.686.457-1.37.229-3.886 1.6-4.798 2.741-5.713 4.113-5.941 5.942-5.027 7.083-2.057 4.114-.229 1.142-.914 1.6-.228 1.37-.457.458-.686 2.513v.914l-.457.914v1.371l-.685 1.829-.457 3.656v7.54l.457 3.885.457 1.371v2.057l.685 2.285.686 6.17-.229 4.341-1.142 3.2-.686.685-.685 1.828-1.143 1.828-.228.914-1.828 2.97-.229 1.143-.685.686-1.143 2.742-.685.686-1.143 2.742-1.828 3.427-.686.686-1.6 4.113-1.142 1.6-.228.914-3.428 6.17-2.056 4.57-4.114 7.312-.457 1.37-4.798 8.684-1.143 2.742-.457.229-.228 1.142-6.17 11.197-1.143 2.742-1.37 2.057-2.286 5.027-.685.686v.457l-1.143.457-3.428-.914-5.712-.229-4.57.914-1.143.686-1.371.228-2.514 1.371-4.113 2.971-2.056 2.057-2.743 3.884-1.142 2.742-.457.457v.686l-.457.685-.914 3.428-.229 5.484.229 2.514.685 1.6.229 1.599 2.513 5.256 2.514 3.427 3.2 2.971 4.798 2.742 2.97 1.143 5.256.914 5.941-.457 2.971-.686 3.2-1.37 2.741-1.6 2.514-2.057 2.97-3.2 1.6-2.513 2.285-5.256v-1.37l.457-.458 19.652-.228-.228-9.826-.686-.229-3.2.229-.456-.229-.457.229H58.553l-.457-.229-1.143-3.884-1.142-2.285-.914-1.143v-.457l-2.286-2.97-2.285-2.057 2.743-3.428 2.285-3.427 4.798-6.17.914-1.6 2.742-3.199 7.541-10.74 3.885-4.798.228-.686 1.143-1.142 1.143-2.057 1.142-1.143 1.371-2.285 2.97-3.656 3.428-4.799.229-.685 6.855-9.14.914-1.829 2.057-2.97L98.77-50.2l2.285-3.2 2.057-2.056 4.342-2.97 1.37-.458 1.829-1.142 1.142-.229 2.514-1.142 1.371-.229 1.371-.685h.914l.914-.457h.914l1.828-.686 4.57-.914h2.286l2.056-.457 3.656-.228 7.77.685 4.57 1.143 8.226 3.427 7.084 3.885 1.6.457 2.513 1.143.457.457 1.143.228 3.884 2.057 1.143.228 1.142.686 4.8 1.828 1.37.228 1.143.686 1.6.228.685.457h.914l.685.457 1.6.229.685.457 2.514.685 2.285.229.914.457 3.2.686h1.599l1.828.685h1.828l1.143.457 5.94.457h8.456l2.742-.457 5.484-.228 1.6 1.828 2.285 3.656 2.742 3.427 2.285 3.657 3.885 4.798 1.828 2.97-.686.686-5.027 2.286-1.828.457-.457.457-1.143.228-1.142.686-1.143.228-.457.457h-.685l-4.342 2.057-1.371.228-.914.686-2.742.914-2.742 1.37h-35.19l-.458.458.229 19.652-.686.685h-.457l-12.796 7.312-20.338-.228-14.396.228-.457.458.229 11.653-.686.686h-10.511l-.457-.229-1.6.229-4.799-.229-.457.229-.228 5.941.228 1.371-.228 2.285.228.457h17.824l.457.457.229 9.826-.229 2.514.229.457.914.228.457-.228 2.513.228.686-.228h23.308l1.828.228 6.627-.228.228-.457.229-24.908.914-.228 5.027-3.2 2.514-1.37h.457l.457-.457h.457l.685-.686 1.371-.685.457 4.113 36.105-.229V6.013l.228-4.113 2.057-.914h.685L220.11.3l2.513-.685.457-.457 1.143-.229 3.428-1.6 3.656-1.142.457-.457 5.713-2.056 1.6-.914h.685l1.37-.915h.458l.457-.457.914-.228 3.884-2.057 4.342-2.97 1.828-1.828.914-1.6.686-2.742v-3.428l-.914-2.97-.686-.914-.914-2.285-.914-1.143v-.457l-.685-.685-4.57-7.541-1.6-2.057-.229-.914-.914-1.142v-.457l-1.6-2.743v-1.142l4.342-.914.914-.457h.914l3.657 1.37.914.686 2.056.686 2.057 1.142 4.798 3.428 5.942 3.656.228.457 2.97 2.057 6.17 5.941 2.286 3.2.685 1.37.457 1.828v3.428l-1.142 2.97-1.828 2.286-5.485 8.455-3.199 4.113-1.142 2.056-9.826 13.71-3.885 5.942-1.37 1.6-5.257 7.998-.914.914-4.57 7.083-5.256 7.084-4.113 6.398-3.199 4.114-4.342 6.398-2.056 2.285-3.656 2.97-3.2 1.829-5.027 1.6-1.6.228h-23.764l-5.484 1.37-2.971 1.372-3.656 2.513-2.514 2.971-2.285 3.656-.685 1.6v1.142h57.813l.457-.228 6.855-9.826.914-.914 3.428-5.256 1.37-1.6.23-.685 1.37-1.6 5.256-7.997.457-.229 1.828-2.97 1.6-1.829 2.513-4.113 1.371-1.6 2.742-4.341 2.97-3.885 1.143-2.056 7.77-10.74 3.199-5.027 5.713-7.77L283.863.986l1.6-1.828 1.142-2.057 7.998-11.197 1.6-2.97.685-2.285.228-3.885-.685-2.97-2.285-4.342-5.484-6.856-1.6-1.6-5.713-8.454-1.6-3.656-.913-3.885-.686-1.6v-1.142l-.685-2.514-.229-3.884 1.143-1.143h.457l.914-.914 5.255-3.428 3.657-2.742 1.6-1.6 1.827-1.142 7.313-6.17 4.341-4.113 10.055-10.511 7.083-8.226.686-1.143 1.828-1.828 3.2-4.113 7.083-7.998 6.398-6.398 6.17-5.485 6.398-5.027.686-.228.228-.457 4.57-2.742 2.057-1.6 7.77-4.113h.685l2.285-1.143 8.226-2.742 3.2-1.6 1.828-1.599 2.285-3.199 1.6-3.428.685-2.056-.229-1.6-.457-.228-8.683.228-3.885.457-6.398-.228v-.457l4.799-3.656 7.769-6.627 3.656-3.885 1.6-2.742v-.686l1.142-2.513.229-2.057.457-.914zM141.502 27.264l.457-.457 14.396.229-.229 14.396-.685.229-13.482-.229-.457-.457zm-108.77-4.57h4.34l1.143.229 2.971 1.37 2.742 2.514 1.371 2.286.686 2.056.228 1.6-.228 3.884-.686 2.057-1.37 2.285-2.286 2.285-1.371.914-3.885 1.143h-2.97l-1.828-.457-1.6-.686-2.057-1.37-2.056-2.058-1.143-1.828-.914-3.199v-3.884l.457-.914v-.914l1.6-2.743 2.285-2.285 1.6-1.142 1.37-.457.458-.457zm157.9-23.765 1.37-.228 1.143.228 9.369-.228 2.513.457-.228 14.167-8.684.229-4.113-.229-.914.229-.914-.686zm-90.49-84.091v-1.828l-.458-1.371-.457-4.799v-6.855l1.143-6.856 1.828-4.57 3.428-5.712 1.828-2.286 3.656-3.656 2.285-1.828.685-.228 1.6-1.371.914-.229 3.656-2.056h.686l2.056-.914 5.256-1.372 3.885-.457h3.884l.229.229 12.34.457 4.798-.229 5.941-.914 1.6-.685 2.285-.457 7.54-3.2 8.913-6.169.457.457-.686 1.371-.228 2.514-1.143 5.484.229 9.14.457 1.371.228 2.514.457.685.686 3.428 2.285 5.484 1.37 2.057v.457l.686.685 1.143 2.057 2.514 3.2 3.656 3.884 4.113 3.427 4.799 2.971 6.17 2.97 4.112 1.372 3.428.685.914.457 7.084.914h7.54l1.6-.457h2.057l2.742-.685 2.285-.229.914-.457h1.143l3.656-1.142 6.398-2.514.914-.685 1.143-.229 6.855-3.199 2.285-1.371 2.97-1.371 1.143-.229 2.285-1.37 2.057-.686.457-.457 8.683-4.113 2.057-1.371h.457l6.855-3.885h.457l.686-.686 1.828-.685 1.6-1.143 1.37-.457 2.514-1.828 2.057-.914 7.997-4.799.686-.685 1.828-.914 5.941-4.113 3.428-1.828 4.342-3.2h.914l-3.428 3.428-6.17 7.312-2.285 2.286-.914 1.37-2.057 2.057-.457.914-13.253 14.625-7.77 7.54-9.368 7.998-.686.229-4.113 3.2-6.398 3.884-1.371 1.142h-.457l-5.942 3.656h-.457l-.457.457h-.457l-8.454 4.342h-.686l-2.514 1.371-1.37.229-2.971 1.37-1.6.23-.457.456-1.37.229-1.372.685-10.054 2.514-5.485.914h-2.056l-2.057.457-3.427.228-8.455-.228-6.17-.686-1.143-.457h-1.828l-6.398-1.6-.685-.456-1.828-.229-7.313-2.513-6.627-2.742-5.255-2.742h-.686l-5.256-2.971-4.798-2.057-1.828-1.142h-.686l-1.142-.686-4.57-1.6-2.971-.685h-1.143l-2.285-.685h-2.056l-1.828-.457h-7.313l-7.54.685-1.143.457-3.656.457-8.684 2.285-1.142.686-1.143-.229 9.14-16.68.686-.458 3.2.229 2.97-.914 2.742-2.057 1.828-2.742.457-1.143.457-3.427-.914-3.2-.914-1.599-2.285-2.285-.914-.229-.686-.685-2.285-.686h-3.427l-2.057.686-2.056 1.142-2.057 2.057-.914 1.6-.914 3.656.228 2.285.914 2.285-10.74 11.882-.228.686-.914.228zm93.46-36.105-.914-4.798.228-6.856 1.371-5.484 2.514-5.484 3.428-4.799 2.742-2.742 3.884-3.199 3.885-2.514h.457l2.285-1.37 2.97-.23 1.829-.913 3.199-.686.685-.457 3.2-.685 1.6-.686 2.284-.228.914-.457 4.342-.457 3.199-.686 6.855-.685h18.281l25.365 2.285-.457.457-5.485.457-5.255.685-2.971.686-4.113.228-4.799.686h-4.799l-4.57.457-1.37.457h-2.057l-2.971.685h-1.828l-2.742.686h-1.6l-2.285.685-2.285.229-.685.457h-1.6l-1.828.686-2.057.228-3.199.914-6.398 2.285-6.627 3.2-2.97 1.827-2.743 2.285-3.427 3.657-2.97 5.255-.23 1.6-.456.685-.229 1.828.229 4.57.914 2.514v.914l1.37 2.514v.457l3.2 4.113 1.6 1.371 3.199 2.057 5.94 2.056 3.428.457h6.399l4.341-.685 5.028-1.371.685-.457 3.885-1.143.228-.457 3.2-.914 3.427-1.6.686-.685.914-.228 3.427-2.057 1.6-.457 6.398-2.97.914-.686 5.484-2.514 2.971-1.828h.457l9.597-5.484 1.143-.914 1.6-.686 9.597-6.398h.457l2.056-1.6 3.657-2.056 2.056-1.6 3.428-2.056 1.828-1.6 2.742-1.6.914-.913 1.371-.686 3.2-2.514.685-.228 1.142-1.143 1.371-.914 1.371-.457 4.114-2.97 2.97-.229 3.428-.685 3.885-.229 4.798-.685 1.371-.457h2.285l1.828-.457.915.228-3.428 2.742-1.6.914-1.37 1.371-1.829.229-1.828 1.142-3.428 2.743-1.37.685-.915.914-2.285 1.371-2.285 1.828-.685.229-1.143 1.142-9.14 5.941-1.6 1.372-3.427 2.056-6.399 4.57-1.142.457-3.2 2.285-2.742 1.371-.228.458h-.457l-7.54 4.798h-.458l-.685.686h-.457l-.686.685h-.457l-1.143.914h-.457l-2.056 1.371-10.055 5.256-3.199 1.371-1.37.914h-.458l-1.6 1.143h-.456l-.457.457h-.457l-.914.685-2.743 1.143-.685.685-1.371.457-1.371 1.143-.914.228-2.285 1.6h-.457l-2.285 1.371-2.285.686-1.6.914-2.057.457-2.056.914h-.914l-3.656 1.37-6.856 1.372-6.626.457-6.399-.686-2.97-.685-1.371-.686h-1.143l-.685-.685h-.915l-1.37-.914-2.286-.914-.685-.686-.914-.228-.686-.686-.914-.228-2.056-1.6-3.2-3.2-3.656-4.798-1.142-2.056v-.915l-.686-.914z" style="stroke-width:.228509"/></svg>