<svg xmlns="http://www.w3.org/2000/svg" width="800" height="716.814" viewBox="0 0 800 716.814">
  <path fill="#b8432a" fill-rule="evenodd" d="m182.398 431.313-.437 3.496.873 15.73h33.209l.874-.874-.437-3.496.437-13.545-.874-1.311-.874-.437-20.1.437-11.36-.437zM760.049 19.266h-3.059l-2.184.874h-2.622l-6.554 1.748-5.244.437-6.554 1.311-1.748.874-9.176 1.31-2.185.875h-3.058l-4.807.874-1.748.873h-3.932l-12.672 2.622-6.117.437-5.244 1.311h-3.495l-6.118 1.31h-4.37l-5.68 1.312h-3.932l-6.554 1.31h-4.807l-3.932.874h-7.866l-6.117.874-33.645.437-31.898-1.747-3.058-.874-15.73-.874-2.623-.874-22.721-1.748h-39.326l-4.806.437-2.622.874h-6.554l-9.613 1.31-1.748.875-8.302.874-4.37 1.31-4.37.437-1.31.874-11.36 2.185-3.06 1.31h-1.747l-2.622 1.312h-2.185l-2.185 1.31-2.621.438-5.68 2.621h-1.312l-2.184 1.311-2.185.437-.874.874-10.487 4.37-10.05 5.68-2.621.874-1.311 1.31-1.748.438-1.311 1.31-3.496 1.748-1.747 1.748-2.622.874-2.622 2.185-2.185-.437-3.932 2.622h-.874L330.96 90.927l-6.99 3.495-2.622.437-1.311.874-15.73 2.185h-10.924l-12.235-1.31h-11.36l-3.06.873-7.428.437-2.185.874h-2.184l-3.933 1.31h-1.748l-5.68 1.749-1.31.873-2.623.437-7.428 3.06-9.176 5.242-10.924 7.866-11.36 11.36-9.613 13.546-3.933 7.865-.437 2.185-1.748 3.059-.437 2.621-.874.874-1.31 4.807v1.747l-.874 1.748v2.622l-1.311 3.496-.874 6.99v14.42l.874 7.428.874 2.622v3.933l1.31 4.37 1.311 11.797-.437 8.302-2.184 6.117-1.311 1.311-1.311 3.496-2.185 3.496-.437 1.747-3.495 5.68-.437 2.186-1.311 1.31-2.185 5.244-1.31 1.31-2.186 5.244-3.495 6.554-1.311 1.311-3.059 7.865-2.184 3.06-.437 1.747-6.555 11.798-3.932 8.739-7.865 13.982-.874 2.622-9.176 16.604-2.185 5.243-.874.437-.437 2.185-11.798 21.41-2.184 5.244-2.622 3.933-4.37 9.613-1.31 1.31v.875l-2.185.874-6.555-1.748-10.923-.437-8.74 1.748-2.184 1.31-2.622.437-4.806 2.622-7.866 5.68-3.932 3.933-5.244 7.428-2.184 5.244-.874.874v1.31l-.874 1.311-1.748 6.555-.437 10.486.437 4.807 1.31 3.059.438 3.058 4.806 10.05 4.807 6.554 6.117 5.68 9.176 5.244 5.68 2.185 10.05 1.748 11.361-.874 5.68-1.31 6.118-2.623 5.243-3.058 4.807-3.933 5.68-6.117 3.059-4.807 4.37-10.05v-2.621l.873-.874 37.578-.437-.437-18.79-1.31-.436-6.118.437-.874-.437-.874.437h-27.528l-.874-.437-2.184-7.428-2.185-4.37-1.748-2.185v-.873l-4.37-5.68-4.369-3.933 5.243-6.555 4.37-6.554 9.176-11.798 1.748-3.058 5.243-6.118 14.42-20.537 7.428-9.176.437-1.31 2.185-2.185 2.184-3.933 2.185-2.184 2.622-4.37 5.68-6.991 6.554-9.176.437-1.311 13.109-17.478 1.748-3.496 3.932-5.68 3.933-4.37 4.37-6.117 3.932-3.933 8.302-5.68 2.622-.874 3.495-2.185 2.185-.437 4.807-2.184 2.621-.437 2.622-1.311h1.748l1.748-.874h1.748l3.495-1.311 8.74-1.748h4.369l3.932-.874 6.992-.437 14.856 1.311 8.74 2.185 15.73 6.554 13.545 7.428 3.059.874 4.806 2.185.874.874 2.185.437 7.428 3.933 2.185.436 2.184 1.311 9.176 3.496 2.622.437 2.185 1.31 3.059.438 1.31.874h1.748l1.311.874 3.059.436 1.31.874 4.807 1.311 4.37.437 1.747.874 6.118 1.311h3.058l3.496 1.31h3.496l2.184.875 11.361.874h16.168l5.243-.874 10.487-.437 3.058 3.495 4.37 6.992 5.243 6.554 4.37 6.991 7.428 9.176 3.496 5.68-1.311 1.311-9.613 4.37-3.496.874-.874.874-2.184.437-2.185 1.31-2.185.438-.874.873h-1.31l-8.303 3.933-2.621.437-1.748 1.31-5.244 1.749-5.243 2.621h-67.29l-.875.874.437 37.578-1.31 1.311h-.875l-24.469 13.983-38.889-.437-27.528.437-.874.873.437 22.285-1.31 1.31h-20.1l-.874-.436-3.059.437-9.176-.437-.874.437-.437 11.36.437 2.622-.437 4.37.437.874h34.082l.874.874.437 18.789-.437 4.806.437.874 1.748.437.874-.437 4.807.437 1.31-.437h44.57l3.495.437 12.672-.437.437-.874.437-47.628 1.748-.437 9.612-6.117 4.807-2.622h.874l.874-.874h.874l1.31-1.31 2.622-1.311.874 7.865 69.039-.437v-34.52l.437-7.865 3.932-1.747h1.311l2.185-1.311 4.806-1.311.874-.874 2.185-.437 6.554-3.059 6.992-2.184.873-.874 10.924-3.933 3.059-1.748h1.31l2.622-1.747h.874l.874-.874 1.748-.437 7.428-3.933 8.302-5.68 3.496-3.496 1.748-3.059 1.31-5.243v-6.554l-1.747-5.68-1.311-1.748-1.748-4.37-1.748-2.185v-.874l-1.31-1.31-8.74-14.42-3.058-3.933-.437-1.747-1.748-2.185v-.874l-3.059-5.243v-2.185l8.303-1.748 1.747-.874h1.748l6.991 2.622 1.748 1.31 3.933 1.311 3.932 2.185 9.176 6.555 11.361 6.99.437.875 5.68 3.932 11.798 11.361 4.37 6.117 1.31 2.622.874 3.496v6.554l-2.184 5.68-3.496 4.37-10.487 16.167-6.117 7.865-2.185 3.933-18.789 26.217-7.428 11.36-2.622 3.06-10.05 15.293-1.747 1.748-8.74 13.545-10.05 13.546-7.865 12.234-6.117 7.866-8.302 12.234-3.933 4.37-6.99 5.68-6.118 3.496-9.613 3.058-3.059.437h-45.443l-10.487 2.622-5.68 2.622-6.991 4.806-4.807 5.68-4.37 6.992-1.31 3.059v2.184h110.549l.874-.437 13.108-18.789 1.748-1.747 6.554-10.05 2.622-3.059.437-1.31 2.622-3.06 10.05-15.293.874-.437 3.495-5.68 3.059-3.496 4.806-7.865 2.622-3.059 5.243-8.302 5.68-7.428 2.186-3.932 14.856-20.537 6.117-9.613 10.924-14.857 13.983-20.973 3.058-3.496 2.185-3.933 15.293-21.41 3.06-5.68 1.31-4.37.437-7.428-1.31-5.68-4.37-8.303-10.487-13.108-3.059-3.06-10.924-16.166-3.058-6.992-1.748-7.428-1.311-3.058v-2.185l-1.311-4.807-.437-7.428 2.185-2.185h.874l1.748-1.747 10.05-6.555 6.99-5.243 3.06-3.059 3.495-2.185 13.982-11.797 8.303-7.865 19.225-20.1 13.546-15.73 1.31-2.185 3.496-3.496 6.118-7.865 13.545-15.293 12.235-12.235 11.798-10.487 12.234-9.613 1.311-.437.437-.874 8.74-5.243 3.932-3.059 14.856-7.865h1.311l4.37-2.185 15.73-5.243 6.117-3.059 3.496-3.059 4.37-6.117 3.058-6.554 1.311-3.933-.437-3.059-.874-.436-16.604.436-7.428.874-12.235-.437v-.873l9.176-6.992 14.856-12.671 6.992-7.429 3.058-5.243v-1.31l2.185-4.807.437-3.933.874-1.748zM288.14 428.254l.874-.874 27.528.437-.437 27.528-1.31.437-25.781-.437-.874-.874zm-207.99-8.739h8.303l2.184.437 5.68 2.622 5.244 4.806 2.622 4.37 1.31 3.932.438 3.06-.437 7.427-1.311 3.933-2.622 4.37-4.37 4.369-2.621 1.748-7.428 2.184h-5.68l-3.496-.873-3.059-1.311-3.932-2.622-3.933-3.933-2.185-3.495-1.748-6.118v-7.428l.874-1.748v-1.747l3.059-5.244 4.37-4.37 3.058-2.184 2.622-.874.874-.874zm301.935-45.443 2.622-.437 2.184.437 17.915-.437 4.807.874-.437 27.091-16.604.437-7.865-.437-1.748.437-1.748-1.31zM209.052 213.273v-3.495l-.874-2.622-.874-9.176v-13.108l2.185-13.109 3.495-8.74 6.555-10.923 3.495-4.37 6.991-6.99 4.37-3.496 1.31-.437 3.06-2.622 1.747-.437 6.991-3.932h1.311l3.933-1.748 10.05-2.622 7.428-.874h7.428l.437.437 23.596.874 9.176-.437 11.36-1.748 3.06-1.31 4.369-.875 14.419-6.117 17.041-11.798.874.874-1.31 2.622-.438 4.806-2.184 10.487.436 17.478.874 2.622.437 4.807.874 1.31 1.311 6.555 4.37 10.487 2.621 3.932v.874l1.311 1.311 2.185 3.933 4.806 6.117 6.992 7.428 7.865 6.554 9.176 5.68 11.798 5.681 7.865 2.622 6.554 1.31 1.748.875 13.545 1.747h14.42l3.058-.873h3.933l5.243-1.311 4.37-.437 1.748-.874h2.185l6.99-2.185 12.236-4.806 1.747-1.311 2.185-.437 13.109-6.118 4.37-2.621 5.68-2.622 2.184-.437 4.37-2.622 3.932-1.31.874-.874 16.605-7.866 3.932-2.621h.874l13.109-7.429h.874l1.31-1.31 3.496-1.311 3.059-2.185 2.621-.874 4.807-3.496 3.932-1.747 15.294-9.176 1.31-1.311 3.496-1.748 11.361-7.865 6.554-3.496 8.302-6.117h1.748l-6.554 6.554-11.798 13.983-4.37 4.37-1.747 2.62-3.933 3.933-.874 1.748-25.343 27.965-14.856 14.42-17.915 15.293-1.311.437-7.865 6.117-12.235 7.429-2.622 2.184h-.874l-11.36 6.992h-.874l-.874.873h-.874l-16.167 8.303h-1.311l-4.807 2.621-2.621.437-5.68 2.622-3.06.437-.873.874-2.622.437-2.622 1.31-19.226 4.807-10.487 1.748h-3.932l-3.933.874-6.554.437-16.167-.437L400 264.397l-2.185-.874h-3.495l-12.235-3.059-1.31-.874-3.497-.436-13.982-4.807-12.672-5.243-10.05-5.244h-1.31l-10.05-5.68-9.176-3.933-3.496-2.185h-1.31l-2.186-1.31-8.739-3.06-5.68-1.31h-2.185l-4.37-1.31h-3.932l-3.496-.875h-13.982l-14.42 1.311-2.184.874-6.991.874-16.605 4.37-2.184 1.31-2.185-.437 17.478-31.897 1.31-.874 6.118.437 5.68-1.748 5.244-3.932 3.496-5.244.873-2.185.874-6.554-1.747-6.117-1.748-3.059-4.37-4.37-1.748-.436-1.31-1.311-4.37-1.311h-6.554l-3.933 1.31-3.932 2.185-3.933 3.933-1.748 3.059-1.748 6.99.437 4.37 1.748 4.37-20.537 22.722-.437 1.31-1.747.437zm178.713-69.038-1.747-9.176.436-13.109 2.622-10.487 4.807-10.486 6.554-9.176 5.243-5.244 7.429-6.117 7.428-4.807h.874l4.37-2.621 5.68-.437 3.495-1.748 6.118-1.311 1.31-.874 6.118-1.31 3.058-1.312 4.37-.437 1.748-.873 8.302-.874 6.117-1.311 13.109-1.311h34.956l48.502 4.37-.874.873-10.487.874-10.05 1.311-5.68 1.311-7.865.437-9.176 1.31h-9.176l-8.74.875-2.621.874h-3.933l-5.68 1.31h-3.496l-5.243 1.311h-3.059l-4.37 1.311-4.369.437-1.31.874h-3.06l-3.495 1.31-3.933.438-6.117 1.748-12.235 4.37-12.671 6.117-5.68 3.495-5.244 4.37-6.554 6.99-5.68 10.05-.438 3.06-.874 1.31-.437 3.496.437 8.739 1.748 4.807v1.747l2.622 4.807v.874l6.117 7.865 3.059 2.622 6.117 3.932 11.36 3.933 6.555.874h12.235l8.302-1.311 9.613-2.622 1.31-.874 7.429-2.185.437-.874 6.117-1.747 6.555-3.059 1.31-1.31 1.748-.438 6.555-3.932 3.058-.874 12.235-5.68 1.748-1.312 10.487-4.806 5.68-3.496h.874l18.352-10.487 2.185-1.747 3.058-1.311 18.352-12.235h.874l3.933-3.059 6.991-3.932 3.933-3.059 6.554-3.932 3.496-3.059 5.243-3.059 1.748-1.747 2.622-1.311 6.117-4.807 1.31-.437 2.185-2.185 2.622-1.747 2.622-.874 7.865-5.68 5.68-.438 6.555-1.31 7.428-.437 9.176-1.311 2.622-.874h4.37l3.495-.874 1.748.437-6.555 5.243-3.058 1.748-2.622 2.622-3.496.437-3.495 2.185-6.555 5.243-2.621 1.31-1.748 1.749-4.37 2.621-4.37 3.496-1.31.437-2.185 2.185-17.478 11.36-3.059 2.622-6.554 3.933-12.235 8.739-2.184.874-6.118 4.37-5.243 2.621-.437.874h-.874l-14.42 9.176h-.873l-1.311 1.31h-.874l-1.31 1.312h-.875l-2.185 1.747h-.873l-3.933 2.622-19.226 10.05-6.117 2.622-2.622 1.748h-.874l-3.059 2.184h-.874l-.873.874h-.874l-1.748 1.311-5.244 2.185-1.31 1.31-2.622.875-2.622 2.184-1.748.437-4.37 3.059h-.873l-4.37 2.622-4.37 1.31-3.058 1.748-3.932.874-3.933 1.748h-1.748l-6.991 2.622-13.109 2.622-12.671.873-12.235-1.31-5.68-1.311-2.622-1.311h-2.185l-1.31-1.311h-1.748l-2.622-1.748-4.37-1.748-1.31-1.31-1.748-.437-1.311-1.311-1.748-.437-3.933-3.059-6.117-6.117-6.991-9.176-2.185-3.933v-1.748l-1.31-1.747z" id="path1"/>
  <path d="m 190.7005,1467.0825 q 0,10.8325 -5.10498,21.416 -4.98047,10.5835 -14.06982,17.9297 -9.96094,7.9688 -23.2837,12.4512 -13.19824,4.4824 -31.875,4.4824 -20.046382,0 -36.108394,-3.7353 -15.9375,-3.7354 -32.497559,-11.0816 v -30.8789 h 1.743164 q 14.069825,11.7041 32.497559,18.0542 18.42773,6.3501 34.61426,6.3501 22.91015,0 35.61035,-8.5913 12.82471,-8.5913 12.82471,-22.9102 0,-12.3266 -6.10108,-18.1787 -5.97656,-5.852 -18.30322,-9.0893 -9.33838,-2.4903 -20.29541,-4.1089 -10.83252,-1.6187 -23.034669,-4.1089 -24.65332,-5.2295 -36.606445,-17.8052 -11.828613,-12.7002 -11.828613,-32.9956 0,-23.2837 19.672851,-38.1006 19.672852,-14.9414 49.929196,-14.9414 19.54834,0 35.85938,3.7354 16.31103,3.7353 28.88672,9.2139 v 29.1357 h -1.74317 q -10.58349,-8.9648 -27.89062,-14.8169 -17.18262,-5.9766 -35.23682,-5.9766 -19.797361,0 -31.874998,8.2178 -11.953125,8.2178 -11.953125,21.167 0,11.5796 5.976562,18.1787 5.976563,6.5991 21.042481,10.0855 7.96875,1.7431 22.66113,4.2334 14.69239,2.4902 24.90235,5.1049 20.66894,5.4786 31.12793,16.5601 10.45898,11.0815 10.45898,31.0034 z M 390.50372,1520 h -23.28369 v -14.8169 q -3.11279,2.1167 -8.4668,5.9766 -5.22949,3.7353 -10.20996,5.9765 -5.85205,2.8638 -13.44726,4.7315 -7.59522,1.9922 -17.80518,1.9922 -18.80127,0 -31.875,-12.4512 -13.07373,-12.4512 -13.07373,-31.7505 0,-15.813 6.72363,-25.5249 6.84815,-9.8364 19.42383,-15.4395 12.7002,-5.603 30.50537,-7.5952 17.80518,-1.9922 38.2251,-2.9882 v -3.6109 q 0,-7.9687 -2.86377,-13.1982 -2.73926,-5.2295 -7.96875,-8.2178 -4.98047,-2.8638 -11.95312,-3.8599 -6.97266,-0.9961 -14.56787,-0.9961 -9.21387,0 -20.54444,2.4903 -11.33056,2.3657 -23.4082,6.9726 h -1.24512 v -23.7817 q 6.84815,-1.8677 19.79737,-4.1089 12.94921,-2.2412 25.5249,-2.2412 14.69238,0 25.5249,2.4902 10.95703,2.3658 18.92578,8.2178 7.84424,5.7275 11.95313,14.8169 4.10888,9.0894 4.10888,22.5366 z m -23.28369,-34.2407 v -38.7232 q -10.70801,0.6226 -25.27588,1.8677 -14.44336,1.2451 -22.91015,3.6108 -10.08545,2.8638 -16.31104,8.9649 -6.22558,5.9766 -6.22558,16.5601 0,11.9531 7.22168,18.0542 7.22167,5.9765 22.03857,5.9765 12.32666,0 22.53662,-4.7314 10.20996,-4.856 18.92578,-11.5796 z M 605.87091,1520 h -23.4082 v -79.1895 q 0,-9.5874 -1.12061,-17.9296 -1.1206,-8.4668 -4.10888,-13.1983 -3.1128,-5.2295 -8.96485,-7.7197 -5.85205,-2.6148 -15.19043,-2.6148 -9.5874,0 -20.04638,4.7315 -10.45899,4.7314 -20.04639,12.0776 V 1520 h -23.4082 v -139.0796 h 23.4082 v 15.4395 q 10.95703,-9.0894 22.66113,-14.1944 11.7041,-5.105 24.03076,-5.105 22.53662,0 34.36524,13.5718 11.82861,13.5718 11.82861,39.0967 z m 211.88086,0 h -23.4082 v -14.5679 q -10.08545,8.7158 -21.04248,13.5718 -10.95703,4.856 -23.78174,4.856 -24.90235,0 -39.59473,-19.1748 -14.56787,-19.1748 -14.56787,-53.1665 0,-17.6807 4.98047,-31.5015 5.10498,-13.8208 13.69629,-23.5327 8.4668,-9.4629 19.67285,-14.4434 11.33057,-4.9805 23.4082,-4.9805 10.95703,0 19.42383,2.3658 8.4668,2.2412 17.80518,7.0971 v -60.2636 h 23.4082 z m -23.4082,-34.2407 v -79.812 q -9.46289,-4.2334 -16.9336,-5.8521 -7.4707,-1.6186 -16.31103,-1.6186 -19.67285,0 -30.62988,13.6963 -10.95704,13.6962 -10.95704,38.8476 0,24.7778 8.4668,37.7271 8.4668,12.8247 27.14356,12.8247 9.96093,0 20.17089,-4.3579 10.20996,-4.4825 19.0503,-11.4551 z m 245.87253,-36.98 q 0,16.9336 -4.8559,31.0034 -4.856,13.9453 -13.6963,23.6572 -8.2178,9.2139 -19.4238,14.3189 -11.08159,4.9805 -23.53276,4.9805 -10.83252,0 -19.67286,-2.3658 -8.71582,-2.3657 -17.80517,-7.3462 v 58.2715 h -23.4082 v -190.3784 h 23.4082 v 14.5679 q 9.33838,-7.8443 20.91797,-13.0737 11.7041,-5.3541 24.90234,-5.3541 25.15138,0 39.09668,19.0503 14.0698,18.9258 14.0698,52.6685 z m -24.1552,0.6226 q 0,-25.1514 -8.5914,-37.6026 -8.59127,-12.4512 -26.39644,-12.4512 -10.08545,0 -20.29541,4.358 -10.20996,4.3579 -19.54834,11.455 v 78.816 q 9.96094,4.4824 17.0581,6.101 7.22168,1.6187 16.31104,1.6187 19.54834,0 30.50535,-13.1983 10.9571,-13.1982 10.9571,-39.0966 z m 139.7885,-91.7652 h -26.3965 v -24.2798 h 26.3965 z M 1154.3553,1520 h -23.4082 v -139.0796 h 23.4082 z m 222.7134,-71.2207 q 0,16.9336 -4.856,31.0034 -4.8559,13.9453 -13.6963,23.6572 -8.2178,9.2139 -19.4238,14.3189 -11.0816,4.9805 -23.5327,4.9805 -10.8325,0 -19.6729,-2.3658 -8.7158,-2.3657 -17.8052,-7.3462 v 58.2715 h -23.4082 v -190.3784 h 23.4082 v 14.5679 q 9.3384,-7.8443 20.918,-13.0737 11.7041,-5.3541 24.9024,-5.3541 25.1513,0 39.0966,19.0503 14.0699,18.9258 14.0699,52.6685 z m -24.1553,0.6226 q 0,-25.1514 -8.5913,-37.6026 -8.5913,-12.4512 -26.3965,-12.4512 -10.0855,0 -20.2954,4.358 -10.21,4.3579 -19.5484,11.455 v 78.816 q 9.961,4.4824 17.0582,6.101 7.2216,1.6187 16.311,1.6187 19.5483,0 30.5054,-13.1983 10.957,-13.1982 10.957,-39.0966 z m 231.0557,3.4863 h -102.4732 q 0,12.8247 3.8599,22.4121 3.8598,9.4629 10.5835,15.564 6.4746,5.9765 15.3149,8.9648 8.9649,2.9883 19.6729,2.9883 14.1943,0 28.5131,-5.603 14.4434,-5.7276 20.5445,-11.2061 h 1.2451 v 25.5249 q -11.8286,4.9805 -24.1553,8.3423 -12.3266,3.3618 -25.8984,3.3618 -34.6143,0 -54.0381,-18.6768 -19.4238,-18.8012 -19.4238,-53.291 0,-34.1162 18.5522,-54.1626 18.6768,-20.0464 49.0576,-20.0464 28.1397,0 43.3301,16.4356 15.315,16.4355 15.315,46.6919 z m -22.7857,-17.9297 q -0.1245,-18.4277 -9.3384,-28.5132 -9.0893,-10.0854 -27.7661,-10.0854 -18.8013,0 -30.0073,11.0815 -11.0815,11.0815 -12.5757,27.5171 z m 199.0562,-28.5132 h -1.2452 q -5.2294,-1.2451 -10.2099,-1.7432 -4.856,-0.6225 -11.5796,-0.6225 -10.8325,0 -20.918,4.8559 -10.0854,4.7315 -19.4238,12.3267 V 1520 h -23.4082 v -139.0796 h 23.4082 v 20.5444 q 13.9453,-11.206 24.5288,-15.8129 10.708,-4.7315 21.7896,-4.7315 6.101,0 8.8403,0.3735 2.7392,0.2491 8.2178,1.1207 z" fill="#1e1a14" transform="translate(4.995 10.964)scale(.43695)" aria-label="Sandpiper"/>
</svg>
